<svg id="visual" viewBox="0 0 900 600" width="900" height="600" xmlns="http://www.w3.org/2000/svg" xmlns:xlink="http://www.w3.org/1999/xlink" version="1.1"><rect x="0" y="0" width="900" height="600" fill="#ffffff"></rect><path d="M0 325L129 250L257 356L386 384L514 304L643 281L771 328L900 319L900 601L771 601L643 601L514 601L386 601L257 601L129 601L0 601Z" fill="#edfff3"></path><path d="M0 363L129 322L257 353L386 403L514 311L643 420L771 426L900 424L900 601L771 601L643 601L514 601L386 601L257 601L129 601L0 601Z" fill="#bed3c4"></path><path d="M0 416L129 385L257 423L386 449L514 428L643 387L771 396L900 471L900 601L771 601L643 601L514 601L386 601L257 601L129 601L0 601Z" fill="#91a897"></path><path d="M0 469L129 519L257 503L386 450L514 455L643 492L771 515L900 493L900 601L771 601L643 601L514 601L386 601L257 601L129 601L0 601Z" fill="#677f6c"></path><path d="M0 528L129 516L257 553L386 501L514 557L643 528L771 499L900 515L900 601L771 601L643 601L514 601L386 601L257 601L129 601L0 601Z" fill="#3f5843"></path></svg>