<svg id="visual" viewBox="0 0 900 600" width="900" height="600" xmlns="http://www.w3.org/2000/svg" xmlns:xlink="http://www.w3.org/1999/xlink" version="1.1"><rect width="900" height="600" fill="#edfff3"></rect><g><g transform="translate(465 598)"><path d="M0 -74.3L74.3 0L0 74.3L-74.3 0Z" fill="none" stroke="#3f5843" stroke-width="2"></path></g><g transform="translate(798 167)"><path d="M0 -71L71 0L0 71L-71 0Z" fill="none" stroke="#3f5843" stroke-width="2"></path></g><g transform="translate(748 599)"><path d="M0 -57L57 0L0 57L-57 0Z" fill="none" stroke="#3f5843" stroke-width="2"></path></g><g transform="translate(295 457)"><path d="M0 -27L27 0L0 27L-27 0Z" fill="none" stroke="#3f5843" stroke-width="2"></path></g><g transform="translate(344 109)"><path d="M0 -58L58 0L0 58L-58 0Z" fill="none" stroke="#3f5843" stroke-width="2"></path></g><g transform="translate(508 260)"><path d="M0 -42L42 0L0 42L-42 0Z" fill="none" stroke="#3f5843" stroke-width="2"></path></g><g transform="translate(356 273)"><path d="M0 -69L69 0L0 69L-69 0Z" fill="none" stroke="#3f5843" stroke-width="2"></path></g><g transform="translate(82 451)"><path d="M0 -68L68 0L0 68L-68 0Z" fill="none" stroke="#3f5843" stroke-width="2"></path></g><g transform="translate(196 75)"><path d="M0 -53L53 0L0 53L-53 0Z" fill="none" stroke="#3f5843" stroke-width="2"></path></g><g transform="translate(662 355)"><path d="M0 -48L48 0L0 48L-48 0Z" fill="none" stroke="#3f5843" stroke-width="2"></path></g><g transform="translate(791 10)"><path d="M0 -32L32 0L0 32L-32 0Z" fill="none" stroke="#3f5843" stroke-width="2"></path></g><g transform="translate(515 4)"><path d="M0 -70L70 0L0 70L-70 0Z" fill="none" stroke="#3f5843" stroke-width="2"></path></g><g transform="translate(99 236)"><path d="M0 -58L58 0L0 58L-58 0Z" fill="none" stroke="#3f5843" stroke-width="2"></path></g><g transform="translate(867 346)"><path d="M0 -54L54 0L0 54L-54 0Z" fill="none" stroke="#3f5843" stroke-width="2"></path></g><g transform="translate(9 89)"><path d="M0 -44L44 0L0 44L-44 0Z" fill="none" stroke="#3f5843" stroke-width="2"></path></g><g transform="translate(664 95)"><path d="M0 -53L53 0L0 53L-53 0Z" fill="none" stroke="#3f5843" stroke-width="2"></path></g><g transform="translate(463 416)"><path d="M0 -38L38 0L0 38L-38 0Z" fill="none" stroke="#3f5843" stroke-width="2"></path></g><g transform="translate(150 589)"><path d="M0 -48L48 0L0 48L-48 0Z" fill="none" stroke="#3f5843" stroke-width="2"></path></g><g transform="translate(595 489)"><path d="M0 -42L42 0L0 42L-42 0Z" fill="none" stroke="#3f5843" stroke-width="2"></path></g><g transform="translate(869 506)"><path d="M0 -65L65 0L0 65L-65 0Z" fill="none" stroke="#3f5843" stroke-width="2"></path></g></g></svg>