<svg id="visual" viewBox="0 0 900 600" width="900" height="600" xmlns="http://www.w3.org/2000/svg" xmlns:xlink="http://www.w3.org/1999/xlink" version="1.1"><path d="M0 133L11.5 133C23 133 46 133 69 133C92 133 115 133 138.2 134C161.3 135 184.7 137 207.8 133C231 129 254 119 277 113C300 107 323 105 346 109C369 113 392 123 415.2 139C438.3 155 461.7 177 484.8 181C508 185 531 171 554 167C577 163 600 169 623 163C646 157 669 139 692.2 137C715.3 135 738.7 149 761.8 155C785 161 808 159 831 155C854 151 877 145 888.5 142L900 139L900 0L888.5 0C877 0 854 0 831 0C808 0 785 0 761.8 0C738.7 0 715.3 0 692.2 0C669 0 646 0 623 0C600 0 577 0 554 0C531 0 508 0 484.8 0C461.7 0 438.3 0 415.2 0C392 0 369 0 346 0C323 0 300 0 277 0C254 0 231 0 207.8 0C184.7 0 161.3 0 138.2 0C115 0 92 0 69 0C46 0 23 0 11.5 0L0 0Z" fill="#3f5843"></path><path d="M0 229L11.5 224C23 219 46 209 69 211C92 213 115 227 138.2 235C161.3 243 184.7 245 207.8 238C231 231 254 215 277 201C300 187 323 175 346 184C369 193 392 223 415.2 240C438.3 257 461.7 261 484.8 264C508 267 531 269 554 269C577 269 600 267 623 261C646 255 669 245 692.2 241C715.3 237 738.7 239 761.8 243C785 247 808 253 831 251C854 249 877 239 888.5 234L900 229L900 137L888.5 140C877 143 854 149 831 153C808 157 785 159 761.8 153C738.7 147 715.3 133 692.2 135C669 137 646 155 623 161C600 167 577 161 554 165C531 169 508 183 484.8 179C461.7 175 438.3 153 415.2 137C392 121 369 111 346 107C323 103 300 105 277 111C254 117 231 127 207.8 131C184.7 135 161.3 133 138.2 132C115 131 92 131 69 131C46 131 23 131 11.5 131L0 131Z" fill="#5c725f"></path><path d="M0 289L11.5 285C23 281 46 273 69 275C92 277 115 289 138.2 295C161.3 301 184.7 301 207.8 293C231 285 254 269 277 258C300 247 323 241 346 250C369 259 392 283 415.2 300C438.3 317 461.7 327 484.8 329C508 331 531 325 554 325C577 325 600 331 623 325C646 319 669 301 692.2 296C715.3 291 738.7 299 761.8 305C785 311 808 315 831 312C854 309 877 299 888.5 294L900 289L900 227L888.5 232C877 237 854 247 831 249C808 251 785 245 761.8 241C738.7 237 715.3 235 692.2 239C669 243 646 253 623 259C600 265 577 267 554 267C531 267 508 265 484.8 262C461.7 259 438.3 255 415.2 238C392 221 369 191 346 182C323 173 300 185 277 199C254 213 231 229 207.8 236C184.7 243 161.3 241 138.2 233C115 225 92 211 69 209C46 207 23 217 11.5 222L0 227Z" fill="#7a8c7d"></path><path d="M0 421L11.5 422C23 423 46 425 69 430C92 435 115 443 138.2 449C161.3 455 184.7 459 207.8 455C231 451 254 439 277 430C300 421 323 415 346 420C369 425 392 441 415.2 449C438.3 457 461.7 457 484.8 457C508 457 531 457 554 458C577 459 600 461 623 460C646 459 669 455 692.2 451C715.3 447 738.7 443 761.8 440C785 437 808 435 831 433C854 431 877 429 888.5 428L900 427L900 287L888.5 292C877 297 854 307 831 310C808 313 785 309 761.8 303C738.7 297 715.3 289 692.2 294C669 299 646 317 623 323C600 329 577 323 554 323C531 323 508 329 484.8 327C461.7 325 438.3 315 415.2 298C392 281 369 257 346 248C323 239 300 245 277 256C254 267 231 283 207.8 291C184.7 299 161.3 299 138.2 293C115 287 92 275 69 273C46 271 23 279 11.5 283L0 287Z" fill="#9aa89c"></path><path d="M0 451L11.5 456C23 461 46 471 69 476C92 481 115 481 138.2 487C161.3 493 184.7 505 207.8 504C231 503 254 489 277 480C300 471 323 467 346 470C369 473 392 483 415.2 488C438.3 493 461.7 493 484.8 494C508 495 531 497 554 497C577 497 600 495 623 496C646 497 669 501 692.2 499C715.3 497 738.7 489 761.8 485C785 481 808 481 831 478C854 475 877 469 888.5 466L900 463L900 425L888.5 426C877 427 854 429 831 431C808 433 785 435 761.8 438C738.7 441 715.3 445 692.2 449C669 453 646 457 623 458C600 459 577 457 554 456C531 455 508 455 484.8 455C461.7 455 438.3 455 415.2 447C392 439 369 423 346 418C323 413 300 419 277 428C254 437 231 449 207.8 453C184.7 457 161.3 453 138.2 447C115 441 92 433 69 428C46 423 23 421 11.5 420L0 419Z" fill="#bbc4bc"></path><path d="M0 511L11.5 514C23 517 46 523 69 525C92 527 115 525 138.2 529C161.3 533 184.7 543 207.8 541C231 539 254 525 277 519C300 513 323 515 346 519C369 523 392 529 415.2 532C438.3 535 461.7 535 484.8 535C508 535 531 535 554 534C577 533 600 531 623 534C646 537 669 545 692.2 547C715.3 549 738.7 545 761.8 543C785 541 808 541 831 537C854 533 877 525 888.5 521L900 517L900 461L888.5 464C877 467 854 473 831 476C808 479 785 479 761.8 483C738.7 487 715.3 495 692.2 497C669 499 646 495 623 494C600 493 577 495 554 495C531 495 508 493 484.8 492C461.7 491 438.3 491 415.2 486C392 481 369 471 346 468C323 465 300 469 277 478C254 487 231 501 207.8 502C184.7 503 161.3 491 138.2 485C115 479 92 479 69 474C46 469 23 459 11.5 454L0 449Z" fill="#dce1dd"></path><path d="M0 601L11.5 601C23 601 46 601 69 601C92 601 115 601 138.2 601C161.3 601 184.7 601 207.8 601C231 601 254 601 277 601C300 601 323 601 346 601C369 601 392 601 415.2 601C438.3 601 461.7 601 484.8 601C508 601 531 601 554 601C577 601 600 601 623 601C646 601 669 601 692.2 601C715.3 601 738.7 601 761.8 601C785 601 808 601 831 601C854 601 877 601 888.5 601L900 601L900 515L888.5 519C877 523 854 531 831 535C808 539 785 539 761.8 541C738.7 543 715.3 547 692.2 545C669 543 646 535 623 532C600 529 577 531 554 532C531 533 508 533 484.8 533C461.7 533 438.3 533 415.2 530C392 527 369 521 346 517C323 513 300 511 277 517C254 523 231 537 207.8 539C184.7 541 161.3 531 138.2 527C115 523 92 525 69 523C46 521 23 515 11.5 512L0 509Z" fill="#ffffff"></path></svg>