<svg class="border shadow-md" viewBox="0 0 1024.711111111111 576.4" style="width: 1024.71px; height: 576.4px;" xmlns="http://www.w3.org/2000/svg" preserveAspectRatio="none"><rect class="bg" id="bg" x="0" y="0" width="1024.711111111111" height="576.4" fill="#ffffff"/><rect x="0" y="0" width="42.325024154589364" height="42.325024154589364" rx="0" fill="#C3D5C6"/><rect x="44.55265700483091" y="0" width="42.325024154589364" height="42.325024154589364" rx="0" fill="#DBFFE8"/><rect x="89.10531400966183" y="0" width="42.325024154589364" height="42.325024154589364" rx="0" fill="#88AA93"/><rect x="133.65797101449274" y="0" width="42.325024154589364" height="42.325024154589364" rx="0" fill="#88AA93"/><rect x="178.21062801932365" y="0" width="42.325024154589364" height="42.325024154589364" rx="0" fill="#DBFFE8"/><rect x="222.76328502415456" y="0" width="42.325024154589364" height="42.325024154589364" rx="0" fill="#DBFFE8"/><rect x="267.3159420289855" y="0" width="42.325024154589364" height="42.325024154589364" rx="0" fill="#C3D5C6"/><rect x="311.8685990338164" y="0" width="42.325024154589364" height="42.325024154589364" rx="0" fill="#C3D5C6"/><rect x="356.4212560386473" y="0" width="42.325024154589364" height="42.325024154589364" rx="0" fill="#88AA93"/><rect x="400.9739130434782" y="0" width="42.325024154589364" height="42.325024154589364" rx="0" fill="#EDFFF3"/><rect x="445.5265700483091" y="0" width="42.325024154589364" height="42.325024154589364" rx="0" fill="#88AA93"/><rect x="490.07922705314" y="0" width="42.325024154589364" height="42.325024154589364" rx="0" fill="#88AA93"/><rect x="534.631884057971" y="0" width="42.325024154589364" height="42.325024154589364" rx="0" fill="#DBFFE8"/><rect x="579.1845410628018" y="0" width="42.325024154589364" height="42.325024154589364" rx="0" fill="#DBFFE8"/><rect x="623.7371980676328" y="0" width="42.325024154589364" height="42.325024154589364" rx="0" fill="#EDFFF3"/><rect x="668.2898550724636" y="0" width="42.325024154589364" height="42.325024154589364" rx="0" fill="#EDFFF3"/><rect x="712.8425120772946" y="0" width="42.325024154589364" height="42.325024154589364" rx="0" fill="#C3D5C6"/><rect x="757.3951690821256" y="0" width="42.325024154589364" height="42.325024154589364" rx="0" fill="#DBFFE8"/><rect x="801.9478260869564" y="0" width="42.325024154589364" height="42.325024154589364" rx="0" fill="#DBFFE8"/><rect x="846.5004830917874" y="0" width="42.325024154589364" height="42.325024154589364" rx="0" fill="#DBFFE8"/><rect x="891.0531400966182" y="0" width="42.325024154589364" height="42.325024154589364" rx="0" fill="#DBFFE8"/><rect x="935.6057971014492" y="0" width="42.325024154589364" height="42.325024154589364" rx="0" fill="#DBFFE8"/><rect x="980.15845410628" y="0" width="42.325024154589364" height="42.325024154589364" rx="0" fill="#EDFFF3"/><rect x="0" y="44.55265700483091" width="42.325024154589364" height="42.325024154589364" rx="0" fill="#DBFFE8"/><rect x="44.55265700483091" y="44.55265700483091" width="42.325024154589364" height="42.325024154589364" rx="0" fill="#88AA93"/><rect x="89.10531400966183" y="44.55265700483091" width="42.325024154589364" height="42.325024154589364" rx="0" fill="#EDFFF3"/><rect x="133.65797101449274" y="44.55265700483091" width="42.325024154589364" height="42.325024154589364" rx="0" fill="#88AA93"/><rect x="178.21062801932365" y="44.55265700483091" width="42.325024154589364" height="42.325024154589364" rx="0" fill="#C3D5C6"/><rect x="222.76328502415456" y="44.55265700483091" width="42.325024154589364" height="42.325024154589364" rx="0" fill="#EDFFF3"/><rect x="267.3159420289855" y="44.55265700483091" width="42.325024154589364" height="42.325024154589364" rx="0" fill="#DBFFE8"/><rect x="311.8685990338164" y="44.55265700483091" width="42.325024154589364" height="42.325024154589364" rx="0" fill="#88AA93"/><rect x="356.4212560386473" y="44.55265700483091" width="42.325024154589364" height="42.325024154589364" rx="0" fill="#DBFFE8"/><rect x="400.9739130434782" y="44.55265700483091" width="42.325024154589364" height="42.325024154589364" rx="0" fill="#C3D5C6"/><rect x="445.5265700483091" y="44.55265700483091" width="42.325024154589364" height="42.325024154589364" rx="0" fill="#DBFFE8"/><rect x="490.07922705314" y="44.55265700483091" width="42.325024154589364" height="42.325024154589364" rx="0" fill="#88AA93"/><rect x="534.631884057971" y="44.55265700483091" width="42.325024154589364" height="42.325024154589364" rx="0" fill="#DBFFE8"/><rect x="579.1845410628018" y="44.55265700483091" width="42.325024154589364" height="42.325024154589364" rx="0" fill="#88AA93"/><rect x="623.7371980676328" y="44.55265700483091" width="42.325024154589364" height="42.325024154589364" rx="0" fill="#88AA93"/><rect x="668.2898550724636" y="44.55265700483091" width="42.325024154589364" height="42.325024154589364" rx="0" fill="#EDFFF3"/><rect x="712.8425120772946" y="44.55265700483091" width="42.325024154589364" height="42.325024154589364" rx="0" fill="#88AA93"/><rect x="757.3951690821256" y="44.55265700483091" width="42.325024154589364" height="42.325024154589364" rx="0" fill="#DBFFE8"/><rect x="801.9478260869564" y="44.55265700483091" width="42.325024154589364" height="42.325024154589364" rx="0" fill="#EDFFF3"/><rect x="846.5004830917874" y="44.55265700483091" width="42.325024154589364" height="42.325024154589364" rx="0" fill="#EDFFF3"/><rect x="891.0531400966182" y="44.55265700483091" width="42.325024154589364" height="42.325024154589364" rx="0" fill="#88AA93"/><rect x="935.6057971014492" y="44.55265700483091" width="42.325024154589364" height="42.325024154589364" rx="0" fill="#88AA93"/><rect x="980.15845410628" y="44.55265700483091" width="42.325024154589364" height="42.325024154589364" rx="0" fill="#88AA93"/><rect x="0" y="89.10531400966183" width="42.325024154589364" height="42.325024154589364" rx="0" fill="#C3D5C6"/><rect x="44.55265700483091" y="89.10531400966183" width="42.325024154589364" height="42.325024154589364" rx="0" fill="#EDFFF3"/><rect x="89.10531400966183" y="89.10531400966183" width="42.325024154589364" height="42.325024154589364" rx="0" fill="#EDFFF3"/><rect x="133.65797101449274" y="89.10531400966183" width="42.325024154589364" height="42.325024154589364" rx="0" fill="#DBFFE8"/><rect x="178.21062801932365" y="89.10531400966183" width="42.325024154589364" height="42.325024154589364" rx="0" fill="#DBFFE8"/><rect x="222.76328502415456" y="89.10531400966183" width="42.325024154589364" height="42.325024154589364" rx="0" fill="#C3D5C6"/><rect x="267.3159420289855" y="89.10531400966183" width="42.325024154589364" height="42.325024154589364" rx="0" fill="#DBFFE8"/><rect x="311.8685990338164" y="89.10531400966183" width="42.325024154589364" height="42.325024154589364" rx="0" fill="#EDFFF3"/><rect x="356.4212560386473" y="89.10531400966183" width="42.325024154589364" height="42.325024154589364" rx="0" fill="#DBFFE8"/><rect x="400.9739130434782" y="89.10531400966183" width="42.325024154589364" height="42.325024154589364" rx="0" fill="#C3D5C6"/><rect x="445.5265700483091" y="89.10531400966183" width="42.325024154589364" height="42.325024154589364" rx="0" fill="#DBFFE8"/><rect x="490.07922705314" y="89.10531400966183" width="42.325024154589364" height="42.325024154589364" rx="0" fill="#EDFFF3"/><rect x="534.631884057971" y="89.10531400966183" width="42.325024154589364" height="42.325024154589364" rx="0" fill="#EDFFF3"/><rect x="579.1845410628018" y="89.10531400966183" width="42.325024154589364" height="42.325024154589364" rx="0" fill="#EDFFF3"/><rect x="623.7371980676328" y="89.10531400966183" width="42.325024154589364" height="42.325024154589364" rx="0" fill="#DBFFE8"/><rect x="668.2898550724636" y="89.10531400966183" width="42.325024154589364" height="42.325024154589364" rx="0" fill="#DBFFE8"/><rect x="712.8425120772946" y="89.10531400966183" width="42.325024154589364" height="42.325024154589364" rx="0" fill="#88AA93"/><rect x="757.3951690821256" y="89.10531400966183" width="42.325024154589364" height="42.325024154589364" rx="0" fill="#DBFFE8"/><rect x="801.9478260869564" y="89.10531400966183" width="42.325024154589364" height="42.325024154589364" rx="0" fill="#DBFFE8"/><rect x="846.5004830917874" y="89.10531400966183" width="42.325024154589364" height="42.325024154589364" rx="0" fill="#88AA93"/><rect x="891.0531400966182" y="89.10531400966183" width="42.325024154589364" height="42.325024154589364" rx="0" fill="#DBFFE8"/><rect x="935.6057971014492" y="89.10531400966183" width="42.325024154589364" height="42.325024154589364" rx="0" fill="#C3D5C6"/><rect x="980.15845410628" y="89.10531400966183" width="42.325024154589364" height="42.325024154589364" rx="0" fill="#EDFFF3"/><rect x="0" y="133.65797101449274" width="42.325024154589364" height="42.325024154589364" rx="0" fill="#C3D5C6"/><rect x="44.55265700483091" y="133.65797101449274" width="42.325024154589364" height="42.325024154589364" rx="0" fill="#DBFFE8"/><rect x="89.10531400966183" y="133.65797101449274" width="42.325024154589364" height="42.325024154589364" rx="0" fill="#C3D5C6"/><rect x="133.65797101449274" y="133.65797101449274" width="42.325024154589364" height="42.325024154589364" rx="0" fill="#88AA93"/><rect x="178.21062801932365" y="133.65797101449274" width="42.325024154589364" height="42.325024154589364" rx="0" fill="#88AA93"/><rect x="222.76328502415456" y="133.65797101449274" width="42.325024154589364" height="42.325024154589364" rx="0" fill="#88AA93"/><rect x="267.3159420289855" y="133.65797101449274" width="42.325024154589364" height="42.325024154589364" rx="0" fill="#DBFFE8"/><rect x="311.8685990338164" y="133.65797101449274" width="42.325024154589364" height="42.325024154589364" rx="0" fill="#DBFFE8"/><rect x="356.4212560386473" y="133.65797101449274" width="42.325024154589364" height="42.325024154589364" rx="0" fill="#C3D5C6"/><rect x="400.9739130434782" y="133.65797101449274" width="42.325024154589364" height="42.325024154589364" rx="0" fill="#C3D5C6"/><rect x="445.5265700483091" y="133.65797101449274" width="42.325024154589364" height="42.325024154589364" rx="0" fill="#EDFFF3"/><rect x="490.07922705314" y="133.65797101449274" width="42.325024154589364" height="42.325024154589364" rx="0" fill="#88AA93"/><rect x="534.631884057971" y="133.65797101449274" width="42.325024154589364" height="42.325024154589364" rx="0" fill="#88AA93"/><rect x="579.1845410628018" y="133.65797101449274" width="42.325024154589364" height="42.325024154589364" rx="0" fill="#C3D5C6"/><rect x="623.7371980676328" y="133.65797101449274" width="42.325024154589364" height="42.325024154589364" rx="0" fill="#EDFFF3"/><rect x="668.2898550724636" y="133.65797101449274" width="42.325024154589364" height="42.325024154589364" rx="0" fill="#C3D5C6"/><rect x="712.8425120772946" y="133.65797101449274" width="42.325024154589364" height="42.325024154589364" rx="0" fill="#EDFFF3"/><rect x="757.3951690821256" y="133.65797101449274" width="42.325024154589364" height="42.325024154589364" rx="0" fill="#C3D5C6"/><rect x="801.9478260869564" y="133.65797101449274" width="42.325024154589364" height="42.325024154589364" rx="0" fill="#88AA93"/><rect x="846.5004830917874" y="133.65797101449274" width="42.325024154589364" height="42.325024154589364" rx="0" fill="#88AA93"/><rect x="891.0531400966182" y="133.65797101449274" width="42.325024154589364" height="42.325024154589364" rx="0" fill="#C3D5C6"/><rect x="935.6057971014492" y="133.65797101449274" width="42.325024154589364" height="42.325024154589364" rx="0" fill="#88AA93"/><rect x="980.15845410628" y="133.65797101449274" width="42.325024154589364" height="42.325024154589364" rx="0" fill="#EDFFF3"/><rect x="0" y="178.21062801932365" width="42.325024154589364" height="42.325024154589364" rx="0" fill="#88AA93"/><rect x="44.55265700483091" y="178.21062801932365" width="42.325024154589364" height="42.325024154589364" rx="0" fill="#88AA93"/><rect x="89.10531400966183" y="178.21062801932365" width="42.325024154589364" height="42.325024154589364" rx="0" fill="#DBFFE8"/><rect x="133.65797101449274" y="178.21062801932365" width="42.325024154589364" height="42.325024154589364" rx="0" fill="#DBFFE8"/><rect x="178.21062801932365" y="178.21062801932365" width="42.325024154589364" height="42.325024154589364" rx="0" fill="#C3D5C6"/><rect x="222.76328502415456" y="178.21062801932365" width="42.325024154589364" height="42.325024154589364" rx="0" fill="#EDFFF3"/><rect x="267.3159420289855" y="178.21062801932365" width="42.325024154589364" height="42.325024154589364" rx="0" fill="#EDFFF3"/><rect x="311.8685990338164" y="178.21062801932365" width="42.325024154589364" height="42.325024154589364" rx="0" fill="#DBFFE8"/><rect x="356.4212560386473" y="178.21062801932365" width="42.325024154589364" height="42.325024154589364" rx="0" fill="#88AA93"/><rect x="400.9739130434782" y="178.21062801932365" width="42.325024154589364" height="42.325024154589364" rx="0" fill="#C3D5C6"/><rect x="445.5265700483091" y="178.21062801932365" width="42.325024154589364" height="42.325024154589364" rx="0" fill="#EDFFF3"/><rect x="490.07922705314" y="178.21062801932365" width="42.325024154589364" height="42.325024154589364" rx="0" fill="#88AA93"/><rect x="534.631884057971" y="178.21062801932365" width="42.325024154589364" height="42.325024154589364" rx="0" fill="#88AA93"/><rect x="579.1845410628018" y="178.21062801932365" width="42.325024154589364" height="42.325024154589364" rx="0" fill="#EDFFF3"/><rect x="623.7371980676328" y="178.21062801932365" width="42.325024154589364" height="42.325024154589364" rx="0" fill="#DBFFE8"/><rect x="668.2898550724636" y="178.21062801932365" width="42.325024154589364" height="42.325024154589364" rx="0" fill="#88AA93"/><rect x="712.8425120772946" y="178.21062801932365" width="42.325024154589364" height="42.325024154589364" rx="0" fill="#88AA93"/><rect x="757.3951690821256" y="178.21062801932365" width="42.325024154589364" height="42.325024154589364" rx="0" fill="#88AA93"/><rect x="801.9478260869564" y="178.21062801932365" width="42.325024154589364" height="42.325024154589364" rx="0" fill="#C3D5C6"/><rect x="846.5004830917874" y="178.21062801932365" width="42.325024154589364" height="42.325024154589364" rx="0" fill="#C3D5C6"/><rect x="891.0531400966182" y="178.21062801932365" width="42.325024154589364" height="42.325024154589364" rx="0" fill="#DBFFE8"/><rect x="935.6057971014492" y="178.21062801932365" width="42.325024154589364" height="42.325024154589364" rx="0" fill="#EDFFF3"/><rect x="980.15845410628" y="178.21062801932365" width="42.325024154589364" height="42.325024154589364" rx="0" fill="#88AA93"/><rect x="0" y="222.76328502415456" width="42.325024154589364" height="42.325024154589364" rx="0" fill="#88AA93"/><rect x="44.55265700483091" y="222.76328502415456" width="42.325024154589364" height="42.325024154589364" rx="0" fill="#DBFFE8"/><rect x="89.10531400966183" y="222.76328502415456" width="42.325024154589364" height="42.325024154589364" rx="0" fill="#C3D5C6"/><rect x="133.65797101449274" y="222.76328502415456" width="42.325024154589364" height="42.325024154589364" rx="0" fill="#C3D5C6"/><rect x="178.21062801932365" y="222.76328502415456" width="42.325024154589364" height="42.325024154589364" rx="0" fill="#EDFFF3"/><rect x="222.76328502415456" y="222.76328502415456" width="42.325024154589364" height="42.325024154589364" rx="0" fill="#DBFFE8"/><rect x="267.3159420289855" y="222.76328502415456" width="42.325024154589364" height="42.325024154589364" rx="0" fill="#EDFFF3"/><rect x="311.8685990338164" y="222.76328502415456" width="42.325024154589364" height="42.325024154589364" rx="0" fill="#DBFFE8"/><rect x="356.4212560386473" y="222.76328502415456" width="42.325024154589364" height="42.325024154589364" rx="0" fill="#C3D5C6"/><rect x="400.9739130434782" y="222.76328502415456" width="42.325024154589364" height="42.325024154589364" rx="0" fill="#88AA93"/><rect x="445.5265700483091" y="222.76328502415456" width="42.325024154589364" height="42.325024154589364" rx="0" fill="#C3D5C6"/><rect x="490.07922705314" y="222.76328502415456" width="42.325024154589364" height="42.325024154589364" rx="0" fill="#88AA93"/><rect x="534.631884057971" y="222.76328502415456" width="42.325024154589364" height="42.325024154589364" rx="0" fill="#DBFFE8"/><rect x="579.1845410628018" y="222.76328502415456" width="42.325024154589364" height="42.325024154589364" rx="0" fill="#EDFFF3"/><rect x="623.7371980676328" y="222.76328502415456" width="42.325024154589364" height="42.325024154589364" rx="0" fill="#88AA93"/><rect x="668.2898550724636" y="222.76328502415456" width="42.325024154589364" height="42.325024154589364" rx="0" fill="#88AA93"/><rect x="712.8425120772946" y="222.76328502415456" width="42.325024154589364" height="42.325024154589364" rx="0" fill="#EDFFF3"/><rect x="757.3951690821256" y="222.76328502415456" width="42.325024154589364" height="42.325024154589364" rx="0" fill="#EDFFF3"/><rect x="801.9478260869564" y="222.76328502415456" width="42.325024154589364" height="42.325024154589364" rx="0" fill="#C3D5C6"/><rect x="846.5004830917874" y="222.76328502415456" width="42.325024154589364" height="42.325024154589364" rx="0" fill="#88AA93"/><rect x="891.0531400966182" y="222.76328502415456" width="42.325024154589364" height="42.325024154589364" rx="0" fill="#DBFFE8"/><rect x="935.6057971014492" y="222.76328502415456" width="42.325024154589364" height="42.325024154589364" rx="0" fill="#C3D5C6"/><rect x="980.15845410628" y="222.76328502415456" width="42.325024154589364" height="42.325024154589364" rx="0" fill="#EDFFF3"/><rect x="0" y="267.3159420289855" width="42.325024154589364" height="42.325024154589364" rx="0" fill="#DBFFE8"/><rect x="44.55265700483091" y="267.3159420289855" width="42.325024154589364" height="42.325024154589364" rx="0" fill="#DBFFE8"/><rect x="89.10531400966183" y="267.3159420289855" width="42.325024154589364" height="42.325024154589364" rx="0" fill="#DBFFE8"/><rect x="133.65797101449274" y="267.3159420289855" width="42.325024154589364" height="42.325024154589364" rx="0" fill="#C3D5C6"/><rect x="178.21062801932365" y="267.3159420289855" width="42.325024154589364" height="42.325024154589364" rx="0" fill="#C3D5C6"/><rect x="222.76328502415456" y="267.3159420289855" width="42.325024154589364" height="42.325024154589364" rx="0" fill="#C3D5C6"/><rect x="267.3159420289855" y="267.3159420289855" width="42.325024154589364" height="42.325024154589364" rx="0" fill="#88AA93"/><rect x="311.8685990338164" y="267.3159420289855" width="42.325024154589364" height="42.325024154589364" rx="0" fill="#88AA93"/><rect x="356.4212560386473" y="267.3159420289855" width="42.325024154589364" height="42.325024154589364" rx="0" fill="#C3D5C6"/><rect x="400.9739130434782" y="267.3159420289855" width="42.325024154589364" height="42.325024154589364" rx="0" fill="#DBFFE8"/><rect x="445.5265700483091" y="267.3159420289855" width="42.325024154589364" height="42.325024154589364" rx="0" fill="#88AA93"/><rect x="490.07922705314" y="267.3159420289855" width="42.325024154589364" height="42.325024154589364" rx="0" fill="#EDFFF3"/><rect x="534.631884057971" y="267.3159420289855" width="42.325024154589364" height="42.325024154589364" rx="0" fill="#DBFFE8"/><rect x="579.1845410628018" y="267.3159420289855" width="42.325024154589364" height="42.325024154589364" rx="0" fill="#EDFFF3"/><rect x="623.7371980676328" y="267.3159420289855" width="42.325024154589364" height="42.325024154589364" rx="0" fill="#DBFFE8"/><rect x="668.2898550724636" y="267.3159420289855" width="42.325024154589364" height="42.325024154589364" rx="0" fill="#C3D5C6"/><rect x="712.8425120772946" y="267.3159420289855" width="42.325024154589364" height="42.325024154589364" rx="0" fill="#EDFFF3"/><rect x="757.3951690821256" y="267.3159420289855" width="42.325024154589364" height="42.325024154589364" rx="0" fill="#C3D5C6"/><rect x="801.9478260869564" y="267.3159420289855" width="42.325024154589364" height="42.325024154589364" rx="0" fill="#DBFFE8"/><rect x="846.5004830917874" y="267.3159420289855" width="42.325024154589364" height="42.325024154589364" rx="0" fill="#88AA93"/><rect x="891.0531400966182" y="267.3159420289855" width="42.325024154589364" height="42.325024154589364" rx="0" fill="#C3D5C6"/><rect x="935.6057971014492" y="267.3159420289855" width="42.325024154589364" height="42.325024154589364" rx="0" fill="#88AA93"/><rect x="980.15845410628" y="267.3159420289855" width="42.325024154589364" height="42.325024154589364" rx="0" fill="#EDFFF3"/><rect x="0" y="311.8685990338164" width="42.325024154589364" height="42.325024154589364" rx="0" fill="#88AA93"/><rect x="44.55265700483091" y="311.8685990338164" width="42.325024154589364" height="42.325024154589364" rx="0" fill="#C3D5C6"/><rect x="89.10531400966183" y="311.8685990338164" width="42.325024154589364" height="42.325024154589364" rx="0" fill="#DBFFE8"/><rect x="133.65797101449274" y="311.8685990338164" width="42.325024154589364" height="42.325024154589364" rx="0" fill="#C3D5C6"/><rect x="178.21062801932365" y="311.8685990338164" width="42.325024154589364" height="42.325024154589364" rx="0" fill="#EDFFF3"/><rect x="222.76328502415456" y="311.8685990338164" width="42.325024154589364" height="42.325024154589364" rx="0" fill="#88AA93"/><rect x="267.3159420289855" y="311.8685990338164" width="42.325024154589364" height="42.325024154589364" rx="0" fill="#EDFFF3"/><rect x="311.8685990338164" y="311.8685990338164" width="42.325024154589364" height="42.325024154589364" rx="0" fill="#DBFFE8"/><rect x="356.4212560386473" y="311.8685990338164" width="42.325024154589364" height="42.325024154589364" rx="0" fill="#88AA93"/><rect x="400.9739130434782" y="311.8685990338164" width="42.325024154589364" height="42.325024154589364" rx="0" fill="#88AA93"/><rect x="445.5265700483091" y="311.8685990338164" width="42.325024154589364" height="42.325024154589364" rx="0" fill="#EDFFF3"/><rect x="490.07922705314" y="311.8685990338164" width="42.325024154589364" height="42.325024154589364" rx="0" fill="#C3D5C6"/><rect x="534.631884057971" y="311.8685990338164" width="42.325024154589364" height="42.325024154589364" rx="0" fill="#DBFFE8"/><rect x="579.1845410628018" y="311.8685990338164" width="42.325024154589364" height="42.325024154589364" rx="0" fill="#EDFFF3"/><rect x="623.7371980676328" y="311.8685990338164" width="42.325024154589364" height="42.325024154589364" rx="0" fill="#EDFFF3"/><rect x="668.2898550724636" y="311.8685990338164" width="42.325024154589364" height="42.325024154589364" rx="0" fill="#DBFFE8"/><rect x="712.8425120772946" y="311.8685990338164" width="42.325024154589364" height="42.325024154589364" rx="0" fill="#DBFFE8"/><rect x="757.3951690821256" y="311.8685990338164" width="42.325024154589364" height="42.325024154589364" rx="0" fill="#88AA93"/><rect x="801.9478260869564" y="311.8685990338164" width="42.325024154589364" height="42.325024154589364" rx="0" fill="#88AA93"/><rect x="846.5004830917874" y="311.8685990338164" width="42.325024154589364" height="42.325024154589364" rx="0" fill="#DBFFE8"/><rect x="891.0531400966182" y="311.8685990338164" width="42.325024154589364" height="42.325024154589364" rx="0" fill="#88AA93"/><rect x="935.6057971014492" y="311.8685990338164" width="42.325024154589364" height="42.325024154589364" rx="0" fill="#DBFFE8"/><rect x="980.15845410628" y="311.8685990338164" width="42.325024154589364" height="42.325024154589364" rx="0" fill="#DBFFE8"/><rect x="0" y="356.4212560386473" width="42.325024154589364" height="42.325024154589364" rx="0" fill="#DBFFE8"/><rect x="44.55265700483091" y="356.4212560386473" width="42.325024154589364" height="42.325024154589364" rx="0" fill="#DBFFE8"/><rect x="89.10531400966183" y="356.4212560386473" width="42.325024154589364" height="42.325024154589364" rx="0" fill="#C3D5C6"/><rect x="133.65797101449274" y="356.4212560386473" width="42.325024154589364" height="42.325024154589364" rx="0" fill="#88AA93"/><rect x="178.21062801932365" y="356.4212560386473" width="42.325024154589364" height="42.325024154589364" rx="0" fill="#C3D5C6"/><rect x="222.76328502415456" y="356.4212560386473" width="42.325024154589364" height="42.325024154589364" rx="0" fill="#88AA93"/><rect x="267.3159420289855" y="356.4212560386473" width="42.325024154589364" height="42.325024154589364" rx="0" fill="#EDFFF3"/><rect x="311.8685990338164" y="356.4212560386473" width="42.325024154589364" height="42.325024154589364" rx="0" fill="#88AA93"/><rect x="356.4212560386473" y="356.4212560386473" width="42.325024154589364" height="42.325024154589364" rx="0" fill="#EDFFF3"/><rect x="400.9739130434782" y="356.4212560386473" width="42.325024154589364" height="42.325024154589364" rx="0" fill="#DBFFE8"/><rect x="445.5265700483091" y="356.4212560386473" width="42.325024154589364" height="42.325024154589364" rx="0" fill="#DBFFE8"/><rect x="490.07922705314" y="356.4212560386473" width="42.325024154589364" height="42.325024154589364" rx="0" fill="#88AA93"/><rect x="534.631884057971" y="356.4212560386473" width="42.325024154589364" height="42.325024154589364" rx="0" fill="#C3D5C6"/><rect x="579.1845410628018" y="356.4212560386473" width="42.325024154589364" height="42.325024154589364" rx="0" fill="#DBFFE8"/><rect x="623.7371980676328" y="356.4212560386473" width="42.325024154589364" height="42.325024154589364" rx="0" fill="#EDFFF3"/><rect x="668.2898550724636" y="356.4212560386473" width="42.325024154589364" height="42.325024154589364" rx="0" fill="#DBFFE8"/><rect x="712.8425120772946" y="356.4212560386473" width="42.325024154589364" height="42.325024154589364" rx="0" fill="#88AA93"/><rect x="757.3951690821256" y="356.4212560386473" width="42.325024154589364" height="42.325024154589364" rx="0" fill="#DBFFE8"/><rect x="801.9478260869564" y="356.4212560386473" width="42.325024154589364" height="42.325024154589364" rx="0" fill="#EDFFF3"/><rect x="846.5004830917874" y="356.4212560386473" width="42.325024154589364" height="42.325024154589364" rx="0" fill="#DBFFE8"/><rect x="891.0531400966182" y="356.4212560386473" width="42.325024154589364" height="42.325024154589364" rx="0" fill="#C3D5C6"/><rect x="935.6057971014492" y="356.4212560386473" width="42.325024154589364" height="42.325024154589364" rx="0" fill="#88AA93"/><rect x="980.15845410628" y="356.4212560386473" width="42.325024154589364" height="42.325024154589364" rx="0" fill="#88AA93"/><rect x="0" y="400.9739130434782" width="42.325024154589364" height="42.325024154589364" rx="0" fill="#EDFFF3"/><rect x="44.55265700483091" y="400.9739130434782" width="42.325024154589364" height="42.325024154589364" rx="0" fill="#DBFFE8"/><rect x="89.10531400966183" y="400.9739130434782" width="42.325024154589364" height="42.325024154589364" rx="0" fill="#C3D5C6"/><rect x="133.65797101449274" y="400.9739130434782" width="42.325024154589364" height="42.325024154589364" rx="0" fill="#EDFFF3"/><rect x="178.21062801932365" y="400.9739130434782" width="42.325024154589364" height="42.325024154589364" rx="0" fill="#EDFFF3"/><rect x="222.76328502415456" y="400.9739130434782" width="42.325024154589364" height="42.325024154589364" rx="0" fill="#88AA93"/><rect x="267.3159420289855" y="400.9739130434782" width="42.325024154589364" height="42.325024154589364" rx="0" fill="#EDFFF3"/><rect x="311.8685990338164" y="400.9739130434782" width="42.325024154589364" height="42.325024154589364" rx="0" fill="#EDFFF3"/><rect x="356.4212560386473" y="400.9739130434782" width="42.325024154589364" height="42.325024154589364" rx="0" fill="#DBFFE8"/><rect x="400.9739130434782" y="400.9739130434782" width="42.325024154589364" height="42.325024154589364" rx="0" fill="#C3D5C6"/><rect x="445.5265700483091" y="400.9739130434782" width="42.325024154589364" height="42.325024154589364" rx="0" fill="#C3D5C6"/><rect x="490.07922705314" y="400.9739130434782" width="42.325024154589364" height="42.325024154589364" rx="0" fill="#DBFFE8"/><rect x="534.631884057971" y="400.9739130434782" width="42.325024154589364" height="42.325024154589364" rx="0" fill="#88AA93"/><rect x="579.1845410628018" y="400.9739130434782" width="42.325024154589364" height="42.325024154589364" rx="0" fill="#DBFFE8"/><rect x="623.7371980676328" y="400.9739130434782" width="42.325024154589364" height="42.325024154589364" rx="0" fill="#DBFFE8"/><rect x="668.2898550724636" y="400.9739130434782" width="42.325024154589364" height="42.325024154589364" rx="0" fill="#EDFFF3"/><rect x="712.8425120772946" y="400.9739130434782" width="42.325024154589364" height="42.325024154589364" rx="0" fill="#EDFFF3"/><rect x="757.3951690821256" y="400.9739130434782" width="42.325024154589364" height="42.325024154589364" rx="0" fill="#DBFFE8"/><rect x="801.9478260869564" y="400.9739130434782" width="42.325024154589364" height="42.325024154589364" rx="0" fill="#88AA93"/><rect x="846.5004830917874" y="400.9739130434782" width="42.325024154589364" height="42.325024154589364" rx="0" fill="#C3D5C6"/><rect x="891.0531400966182" y="400.9739130434782" width="42.325024154589364" height="42.325024154589364" rx="0" fill="#EDFFF3"/><rect x="935.6057971014492" y="400.9739130434782" width="42.325024154589364" height="42.325024154589364" rx="0" fill="#88AA93"/><rect x="980.15845410628" y="400.9739130434782" width="42.325024154589364" height="42.325024154589364" rx="0" fill="#EDFFF3"/><rect x="0" y="445.5265700483091" width="42.325024154589364" height="42.325024154589364" rx="0" fill="#88AA93"/><rect x="44.55265700483091" y="445.5265700483091" width="42.325024154589364" height="42.325024154589364" rx="0" fill="#C3D5C6"/><rect x="89.10531400966183" y="445.5265700483091" width="42.325024154589364" height="42.325024154589364" rx="0" fill="#DBFFE8"/><rect x="133.65797101449274" y="445.5265700483091" width="42.325024154589364" height="42.325024154589364" rx="0" fill="#DBFFE8"/><rect x="178.21062801932365" y="445.5265700483091" width="42.325024154589364" height="42.325024154589364" rx="0" fill="#88AA93"/><rect x="222.76328502415456" y="445.5265700483091" width="42.325024154589364" height="42.325024154589364" rx="0" fill="#EDFFF3"/><rect x="267.3159420289855" y="445.5265700483091" width="42.325024154589364" height="42.325024154589364" rx="0" fill="#EDFFF3"/><rect x="311.8685990338164" y="445.5265700483091" width="42.325024154589364" height="42.325024154589364" rx="0" fill="#88AA93"/><rect x="356.4212560386473" y="445.5265700483091" width="42.325024154589364" height="42.325024154589364" rx="0" fill="#EDFFF3"/><rect x="400.9739130434782" y="445.5265700483091" width="42.325024154589364" height="42.325024154589364" rx="0" fill="#EDFFF3"/><rect x="445.5265700483091" y="445.5265700483091" width="42.325024154589364" height="42.325024154589364" rx="0" fill="#EDFFF3"/><rect x="490.07922705314" y="445.5265700483091" width="42.325024154589364" height="42.325024154589364" rx="0" fill="#88AA93"/><rect x="534.631884057971" y="445.5265700483091" width="42.325024154589364" height="42.325024154589364" rx="0" fill="#DBFFE8"/><rect x="579.1845410628018" y="445.5265700483091" width="42.325024154589364" height="42.325024154589364" rx="0" fill="#DBFFE8"/><rect x="623.7371980676328" y="445.5265700483091" width="42.325024154589364" height="42.325024154589364" rx="0" fill="#EDFFF3"/><rect x="668.2898550724636" y="445.5265700483091" width="42.325024154589364" height="42.325024154589364" rx="0" fill="#DBFFE8"/><rect x="712.8425120772946" y="445.5265700483091" width="42.325024154589364" height="42.325024154589364" rx="0" fill="#DBFFE8"/><rect x="757.3951690821256" y="445.5265700483091" width="42.325024154589364" height="42.325024154589364" rx="0" fill="#88AA93"/><rect x="801.9478260869564" y="445.5265700483091" width="42.325024154589364" height="42.325024154589364" rx="0" fill="#EDFFF3"/><rect x="846.5004830917874" y="445.5265700483091" width="42.325024154589364" height="42.325024154589364" rx="0" fill="#88AA93"/><rect x="891.0531400966182" y="445.5265700483091" width="42.325024154589364" height="42.325024154589364" rx="0" fill="#88AA93"/><rect x="935.6057971014492" y="445.5265700483091" width="42.325024154589364" height="42.325024154589364" rx="0" fill="#88AA93"/><rect x="980.15845410628" y="445.5265700483091" width="42.325024154589364" height="42.325024154589364" rx="0" fill="#C3D5C6"/><rect x="0" y="490.07922705314" width="42.325024154589364" height="42.325024154589364" rx="0" fill="#88AA93"/><rect x="44.55265700483091" y="490.07922705314" width="42.325024154589364" height="42.325024154589364" rx="0" fill="#EDFFF3"/><rect x="89.10531400966183" y="490.07922705314" width="42.325024154589364" height="42.325024154589364" rx="0" fill="#EDFFF3"/><rect x="133.65797101449274" y="490.07922705314" width="42.325024154589364" height="42.325024154589364" rx="0" fill="#C3D5C6"/><rect x="178.21062801932365" y="490.07922705314" width="42.325024154589364" height="42.325024154589364" rx="0" fill="#DBFFE8"/><rect x="222.76328502415456" y="490.07922705314" width="42.325024154589364" height="42.325024154589364" rx="0" fill="#C3D5C6"/><rect x="267.3159420289855" y="490.07922705314" width="42.325024154589364" height="42.325024154589364" rx="0" fill="#DBFFE8"/><rect x="311.8685990338164" y="490.07922705314" width="42.325024154589364" height="42.325024154589364" rx="0" fill="#88AA93"/><rect x="356.4212560386473" y="490.07922705314" width="42.325024154589364" height="42.325024154589364" rx="0" fill="#C3D5C6"/><rect x="400.9739130434782" y="490.07922705314" width="42.325024154589364" height="42.325024154589364" rx="0" fill="#DBFFE8"/><rect x="445.5265700483091" y="490.07922705314" width="42.325024154589364" height="42.325024154589364" rx="0" fill="#DBFFE8"/><rect x="490.07922705314" y="490.07922705314" width="42.325024154589364" height="42.325024154589364" rx="0" fill="#C3D5C6"/><rect x="534.631884057971" y="490.07922705314" width="42.325024154589364" height="42.325024154589364" rx="0" fill="#C3D5C6"/><rect x="579.1845410628018" y="490.07922705314" width="42.325024154589364" height="42.325024154589364" rx="0" fill="#DBFFE8"/><rect x="623.7371980676328" y="490.07922705314" width="42.325024154589364" height="42.325024154589364" rx="0" fill="#88AA93"/><rect x="668.2898550724636" y="490.07922705314" width="42.325024154589364" height="42.325024154589364" rx="0" fill="#EDFFF3"/><rect x="712.8425120772946" y="490.07922705314" width="42.325024154589364" height="42.325024154589364" rx="0" fill="#88AA93"/><rect x="757.3951690821256" y="490.07922705314" width="42.325024154589364" height="42.325024154589364" rx="0" fill="#EDFFF3"/><rect x="801.9478260869564" y="490.07922705314" width="42.325024154589364" height="42.325024154589364" rx="0" fill="#EDFFF3"/><rect x="846.5004830917874" y="490.07922705314" width="42.325024154589364" height="42.325024154589364" rx="0" fill="#EDFFF3"/><rect x="891.0531400966182" y="490.07922705314" width="42.325024154589364" height="42.325024154589364" rx="0" fill="#DBFFE8"/><rect x="935.6057971014492" y="490.07922705314" width="42.325024154589364" height="42.325024154589364" rx="0" fill="#EDFFF3"/><rect x="980.15845410628" y="490.07922705314" width="42.325024154589364" height="42.325024154589364" rx="0" fill="#DBFFE8"/><rect x="0" y="534.631884057971" width="42.325024154589364" height="42.325024154589364" rx="0" fill="#C3D5C6"/><rect x="44.55265700483091" y="534.631884057971" width="42.325024154589364" height="42.325024154589364" rx="0" fill="#DBFFE8"/><rect x="89.10531400966183" y="534.631884057971" width="42.325024154589364" height="42.325024154589364" rx="0" fill="#88AA93"/><rect x="133.65797101449274" y="534.631884057971" width="42.325024154589364" height="42.325024154589364" rx="0" fill="#C3D5C6"/><rect x="178.21062801932365" y="534.631884057971" width="42.325024154589364" height="42.325024154589364" rx="0" fill="#DBFFE8"/><rect x="222.76328502415456" y="534.631884057971" width="42.325024154589364" height="42.325024154589364" rx="0" fill="#EDFFF3"/><rect x="267.3159420289855" y="534.631884057971" width="42.325024154589364" height="42.325024154589364" rx="0" fill="#88AA93"/><rect x="311.8685990338164" y="534.631884057971" width="42.325024154589364" height="42.325024154589364" rx="0" fill="#C3D5C6"/><rect x="356.4212560386473" y="534.631884057971" width="42.325024154589364" height="42.325024154589364" rx="0" fill="#C3D5C6"/><rect x="400.9739130434782" y="534.631884057971" width="42.325024154589364" height="42.325024154589364" rx="0" fill="#C3D5C6"/><rect x="445.5265700483091" y="534.631884057971" width="42.325024154589364" height="42.325024154589364" rx="0" fill="#88AA93"/><rect x="490.07922705314" y="534.631884057971" width="42.325024154589364" height="42.325024154589364" rx="0" fill="#C3D5C6"/><rect x="534.631884057971" y="534.631884057971" width="42.325024154589364" height="42.325024154589364" rx="0" fill="#88AA93"/><rect x="579.1845410628018" y="534.631884057971" width="42.325024154589364" height="42.325024154589364" rx="0" fill="#EDFFF3"/><rect x="623.7371980676328" y="534.631884057971" width="42.325024154589364" height="42.325024154589364" rx="0" fill="#EDFFF3"/><rect x="668.2898550724636" y="534.631884057971" width="42.325024154589364" height="42.325024154589364" rx="0" fill="#DBFFE8"/><rect x="712.8425120772946" y="534.631884057971" width="42.325024154589364" height="42.325024154589364" rx="0" fill="#EDFFF3"/><rect x="757.3951690821256" y="534.631884057971" width="42.325024154589364" height="42.325024154589364" rx="0" fill="#88AA93"/><rect x="801.9478260869564" y="534.631884057971" width="42.325024154589364" height="42.325024154589364" rx="0" fill="#DBFFE8"/><rect x="846.5004830917874" y="534.631884057971" width="42.325024154589364" height="42.325024154589364" rx="0" fill="#C3D5C6"/><rect x="891.0531400966182" y="534.631884057971" width="42.325024154589364" height="42.325024154589364" rx="0" fill="#DBFFE8"/><rect x="935.6057971014492" y="534.631884057971" width="42.325024154589364" height="42.325024154589364" rx="0" fill="#C3D5C6"/><rect x="980.15845410628" y="534.631884057971" width="42.325024154589364" height="42.325024154589364" rx="0" fill="#EDFFF3"/><rect x="0" y="579.1845410628018" width="42.325024154589364" height="42.325024154589364" rx="0" fill="#EDFFF3"/><rect x="44.55265700483091" y="579.1845410628018" width="42.325024154589364" height="42.325024154589364" rx="0" fill="#DBFFE8"/><rect x="89.10531400966183" y="579.1845410628018" width="42.325024154589364" height="42.325024154589364" rx="0" fill="#88AA93"/><rect x="133.65797101449274" y="579.1845410628018" width="42.325024154589364" height="42.325024154589364" rx="0" fill="#DBFFE8"/><rect x="178.21062801932365" y="579.1845410628018" width="42.325024154589364" height="42.325024154589364" rx="0" fill="#C3D5C6"/><rect x="222.76328502415456" y="579.1845410628018" width="42.325024154589364" height="42.325024154589364" rx="0" fill="#EDFFF3"/><rect x="267.3159420289855" y="579.1845410628018" width="42.325024154589364" height="42.325024154589364" rx="0" fill="#C3D5C6"/><rect x="311.8685990338164" y="579.1845410628018" width="42.325024154589364" height="42.325024154589364" rx="0" fill="#EDFFF3"/><rect x="356.4212560386473" y="579.1845410628018" width="42.325024154589364" height="42.325024154589364" rx="0" fill="#C3D5C6"/><rect x="400.9739130434782" y="579.1845410628018" width="42.325024154589364" height="42.325024154589364" rx="0" fill="#EDFFF3"/><rect x="445.5265700483091" y="579.1845410628018" width="42.325024154589364" height="42.325024154589364" rx="0" fill="#EDFFF3"/><rect x="490.07922705314" y="579.1845410628018" width="42.325024154589364" height="42.325024154589364" rx="0" fill="#88AA93"/><rect x="534.631884057971" y="579.1845410628018" width="42.325024154589364" height="42.325024154589364" rx="0" fill="#88AA93"/><rect x="579.1845410628018" y="579.1845410628018" width="42.325024154589364" height="42.325024154589364" rx="0" fill="#DBFFE8"/><rect x="623.7371980676328" y="579.1845410628018" width="42.325024154589364" height="42.325024154589364" rx="0" fill="#EDFFF3"/><rect x="668.2898550724636" y="579.1845410628018" width="42.325024154589364" height="42.325024154589364" rx="0" fill="#88AA93"/><rect x="712.8425120772946" y="579.1845410628018" width="42.325024154589364" height="42.325024154589364" rx="0" fill="#88AA93"/><rect x="757.3951690821256" y="579.1845410628018" width="42.325024154589364" height="42.325024154589364" rx="0" fill="#88AA93"/><rect x="801.9478260869564" y="579.1845410628018" width="42.325024154589364" height="42.325024154589364" rx="0" fill="#DBFFE8"/><rect x="846.5004830917874" y="579.1845410628018" width="42.325024154589364" height="42.325024154589364" rx="0" fill="#DBFFE8"/><rect x="891.0531400966182" y="579.1845410628018" width="42.325024154589364" height="42.325024154589364" rx="0" fill="#EDFFF3"/><rect x="935.6057971014492" y="579.1845410628018" width="42.325024154589364" height="42.325024154589364" rx="0" fill="#EDFFF3"/><rect x="980.15845410628" y="579.1845410628018" width="42.325024154589364" height="42.325024154589364" rx="0" fill="#88AA93"/><rect x="0" y="623.7371980676328" width="42.325024154589364" height="42.325024154589364" rx="0" fill="#C3D5C6"/><rect x="44.55265700483091" y="623.7371980676328" width="42.325024154589364" height="42.325024154589364" rx="0" fill="#88AA93"/><rect x="89.10531400966183" y="623.7371980676328" width="42.325024154589364" height="42.325024154589364" rx="0" fill="#EDFFF3"/><rect x="133.65797101449274" y="623.7371980676328" width="42.325024154589364" height="42.325024154589364" rx="0" fill="#DBFFE8"/><rect x="178.21062801932365" y="623.7371980676328" width="42.325024154589364" height="42.325024154589364" rx="0" fill="#EDFFF3"/><rect x="222.76328502415456" y="623.7371980676328" width="42.325024154589364" height="42.325024154589364" rx="0" fill="#EDFFF3"/><rect x="267.3159420289855" y="623.7371980676328" width="42.325024154589364" height="42.325024154589364" rx="0" fill="#DBFFE8"/><rect x="311.8685990338164" y="623.7371980676328" width="42.325024154589364" height="42.325024154589364" rx="0" fill="#88AA93"/><rect x="356.4212560386473" y="623.7371980676328" width="42.325024154589364" height="42.325024154589364" rx="0" fill="#C3D5C6"/><rect x="400.9739130434782" y="623.7371980676328" width="42.325024154589364" height="42.325024154589364" rx="0" fill="#88AA93"/><rect x="445.5265700483091" y="623.7371980676328" width="42.325024154589364" height="42.325024154589364" rx="0" fill="#EDFFF3"/><rect x="490.07922705314" y="623.7371980676328" width="42.325024154589364" height="42.325024154589364" rx="0" fill="#C3D5C6"/><rect x="534.631884057971" y="623.7371980676328" width="42.325024154589364" height="42.325024154589364" rx="0" fill="#C3D5C6"/><rect x="579.1845410628018" y="623.7371980676328" width="42.325024154589364" height="42.325024154589364" rx="0" fill="#88AA93"/><rect x="623.7371980676328" y="623.7371980676328" width="42.325024154589364" height="42.325024154589364" rx="0" fill="#88AA93"/><rect x="668.2898550724636" y="623.7371980676328" width="42.325024154589364" height="42.325024154589364" rx="0" fill="#C3D5C6"/><rect x="712.8425120772946" y="623.7371980676328" width="42.325024154589364" height="42.325024154589364" rx="0" fill="#C3D5C6"/><rect x="757.3951690821256" y="623.7371980676328" width="42.325024154589364" height="42.325024154589364" rx="0" fill="#EDFFF3"/><rect x="801.9478260869564" y="623.7371980676328" width="42.325024154589364" height="42.325024154589364" rx="0" fill="#DBFFE8"/><rect x="846.5004830917874" y="623.7371980676328" width="42.325024154589364" height="42.325024154589364" rx="0" fill="#C3D5C6"/><rect x="891.0531400966182" y="623.7371980676328" width="42.325024154589364" height="42.325024154589364" rx="0" fill="#88AA93"/><rect x="935.6057971014492" y="623.7371980676328" width="42.325024154589364" height="42.325024154589364" rx="0" fill="#88AA93"/><rect x="980.15845410628" y="623.7371980676328" width="42.325024154589364" height="42.325024154589364" rx="0" fill="#EDFFF3"/><rect x="0" y="668.2898550724636" width="42.325024154589364" height="42.325024154589364" rx="0" fill="#EDFFF3"/><rect x="44.55265700483091" y="668.2898550724636" width="42.325024154589364" height="42.325024154589364" rx="0" fill="#EDFFF3"/><rect x="89.10531400966183" y="668.2898550724636" width="42.325024154589364" height="42.325024154589364" rx="0" fill="#88AA93"/><rect x="133.65797101449274" y="668.2898550724636" width="42.325024154589364" height="42.325024154589364" rx="0" fill="#C3D5C6"/><rect x="178.21062801932365" y="668.2898550724636" width="42.325024154589364" height="42.325024154589364" rx="0" fill="#DBFFE8"/><rect x="222.76328502415456" y="668.2898550724636" width="42.325024154589364" height="42.325024154589364" rx="0" fill="#88AA93"/><rect x="267.3159420289855" y="668.2898550724636" width="42.325024154589364" height="42.325024154589364" rx="0" fill="#DBFFE8"/><rect x="311.8685990338164" y="668.2898550724636" width="42.325024154589364" height="42.325024154589364" rx="0" fill="#EDFFF3"/><rect x="356.4212560386473" y="668.2898550724636" width="42.325024154589364" height="42.325024154589364" rx="0" fill="#EDFFF3"/><rect x="400.9739130434782" y="668.2898550724636" width="42.325024154589364" height="42.325024154589364" rx="0" fill="#DBFFE8"/><rect x="445.5265700483091" y="668.2898550724636" width="42.325024154589364" height="42.325024154589364" rx="0" fill="#DBFFE8"/><rect x="490.07922705314" y="668.2898550724636" width="42.325024154589364" height="42.325024154589364" rx="0" fill="#C3D5C6"/><rect x="534.631884057971" y="668.2898550724636" width="42.325024154589364" height="42.325024154589364" rx="0" fill="#EDFFF3"/><rect x="579.1845410628018" y="668.2898550724636" width="42.325024154589364" height="42.325024154589364" rx="0" fill="#C3D5C6"/><rect x="623.7371980676328" y="668.2898550724636" width="42.325024154589364" height="42.325024154589364" rx="0" fill="#DBFFE8"/><rect x="668.2898550724636" y="668.2898550724636" width="42.325024154589364" height="42.325024154589364" rx="0" fill="#C3D5C6"/><rect x="712.8425120772946" y="668.2898550724636" width="42.325024154589364" height="42.325024154589364" rx="0" fill="#C3D5C6"/><rect x="757.3951690821256" y="668.2898550724636" width="42.325024154589364" height="42.325024154589364" rx="0" fill="#EDFFF3"/><rect x="801.9478260869564" y="668.2898550724636" width="42.325024154589364" height="42.325024154589364" rx="0" fill="#DBFFE8"/><rect x="846.5004830917874" y="668.2898550724636" width="42.325024154589364" height="42.325024154589364" rx="0" fill="#88AA93"/><rect x="891.0531400966182" y="668.2898550724636" width="42.325024154589364" height="42.325024154589364" rx="0" fill="#DBFFE8"/><rect x="935.6057971014492" y="668.2898550724636" width="42.325024154589364" height="42.325024154589364" rx="0" fill="#88AA93"/><rect x="980.15845410628" y="668.2898550724636" width="42.325024154589364" height="42.325024154589364" rx="0" fill="#DBFFE8"/><rect x="0" y="712.8425120772946" width="42.325024154589364" height="42.325024154589364" rx="0" fill="#EDFFF3"/><rect x="44.55265700483091" y="712.8425120772946" width="42.325024154589364" height="42.325024154589364" rx="0" fill="#C3D5C6"/><rect x="89.10531400966183" y="712.8425120772946" width="42.325024154589364" height="42.325024154589364" rx="0" fill="#EDFFF3"/><rect x="133.65797101449274" y="712.8425120772946" width="42.325024154589364" height="42.325024154589364" rx="0" fill="#EDFFF3"/><rect x="178.21062801932365" y="712.8425120772946" width="42.325024154589364" height="42.325024154589364" rx="0" fill="#C3D5C6"/><rect x="222.76328502415456" y="712.8425120772946" width="42.325024154589364" height="42.325024154589364" rx="0" fill="#DBFFE8"/><rect x="267.3159420289855" y="712.8425120772946" width="42.325024154589364" height="42.325024154589364" rx="0" fill="#C3D5C6"/><rect x="311.8685990338164" y="712.8425120772946" width="42.325024154589364" height="42.325024154589364" rx="0" fill="#EDFFF3"/><rect x="356.4212560386473" y="712.8425120772946" width="42.325024154589364" height="42.325024154589364" rx="0" fill="#88AA93"/><rect x="400.9739130434782" y="712.8425120772946" width="42.325024154589364" height="42.325024154589364" rx="0" fill="#88AA93"/><rect x="445.5265700483091" y="712.8425120772946" width="42.325024154589364" height="42.325024154589364" rx="0" fill="#DBFFE8"/><rect x="490.07922705314" y="712.8425120772946" width="42.325024154589364" height="42.325024154589364" rx="0" fill="#C3D5C6"/><rect x="534.631884057971" y="712.8425120772946" width="42.325024154589364" height="42.325024154589364" rx="0" fill="#88AA93"/><rect x="579.1845410628018" y="712.8425120772946" width="42.325024154589364" height="42.325024154589364" rx="0" fill="#DBFFE8"/><rect x="623.7371980676328" y="712.8425120772946" width="42.325024154589364" height="42.325024154589364" rx="0" fill="#C3D5C6"/><rect x="668.2898550724636" y="712.8425120772946" width="42.325024154589364" height="42.325024154589364" rx="0" fill="#DBFFE8"/><rect x="712.8425120772946" y="712.8425120772946" width="42.325024154589364" height="42.325024154589364" rx="0" fill="#C3D5C6"/><rect x="757.3951690821256" y="712.8425120772946" width="42.325024154589364" height="42.325024154589364" rx="0" fill="#88AA93"/><rect x="801.9478260869564" y="712.8425120772946" width="42.325024154589364" height="42.325024154589364" rx="0" fill="#DBFFE8"/><rect x="846.5004830917874" y="712.8425120772946" width="42.325024154589364" height="42.325024154589364" rx="0" fill="#88AA93"/><rect x="891.0531400966182" y="712.8425120772946" width="42.325024154589364" height="42.325024154589364" rx="0" fill="#88AA93"/><rect x="935.6057971014492" y="712.8425120772946" width="42.325024154589364" height="42.325024154589364" rx="0" fill="#C3D5C6"/><rect x="980.15845410628" y="712.8425120772946" width="42.325024154589364" height="42.325024154589364" rx="0" fill="#EDFFF3"/><rect x="0" y="757.3951690821256" width="42.325024154589364" height="42.325024154589364" rx="0" fill="#DBFFE8"/><rect x="44.55265700483091" y="757.3951690821256" width="42.325024154589364" height="42.325024154589364" rx="0" fill="#88AA93"/><rect x="89.10531400966183" y="757.3951690821256" width="42.325024154589364" height="42.325024154589364" rx="0" fill="#C3D5C6"/><rect x="133.65797101449274" y="757.3951690821256" width="42.325024154589364" height="42.325024154589364" rx="0" fill="#EDFFF3"/><rect x="178.21062801932365" y="757.3951690821256" width="42.325024154589364" height="42.325024154589364" rx="0" fill="#EDFFF3"/><rect x="222.76328502415456" y="757.3951690821256" width="42.325024154589364" height="42.325024154589364" rx="0" fill="#EDFFF3"/><rect x="267.3159420289855" y="757.3951690821256" width="42.325024154589364" height="42.325024154589364" rx="0" fill="#DBFFE8"/><rect x="311.8685990338164" y="757.3951690821256" width="42.325024154589364" height="42.325024154589364" rx="0" fill="#C3D5C6"/><rect x="356.4212560386473" y="757.3951690821256" width="42.325024154589364" height="42.325024154589364" rx="0" fill="#EDFFF3"/><rect x="400.9739130434782" y="757.3951690821256" width="42.325024154589364" height="42.325024154589364" rx="0" fill="#88AA93"/><rect x="445.5265700483091" y="757.3951690821256" width="42.325024154589364" height="42.325024154589364" rx="0" fill="#DBFFE8"/><rect x="490.07922705314" y="757.3951690821256" width="42.325024154589364" height="42.325024154589364" rx="0" fill="#C3D5C6"/><rect x="534.631884057971" y="757.3951690821256" width="42.325024154589364" height="42.325024154589364" rx="0" fill="#88AA93"/><rect x="579.1845410628018" y="757.3951690821256" width="42.325024154589364" height="42.325024154589364" rx="0" fill="#DBFFE8"/><rect x="623.7371980676328" y="757.3951690821256" width="42.325024154589364" height="42.325024154589364" rx="0" fill="#DBFFE8"/><rect x="668.2898550724636" y="757.3951690821256" width="42.325024154589364" height="42.325024154589364" rx="0" fill="#88AA93"/><rect x="712.8425120772946" y="757.3951690821256" width="42.325024154589364" height="42.325024154589364" rx="0" fill="#88AA93"/><rect x="757.3951690821256" y="757.3951690821256" width="42.325024154589364" height="42.325024154589364" rx="0" fill="#EDFFF3"/><rect x="801.9478260869564" y="757.3951690821256" width="42.325024154589364" height="42.325024154589364" rx="0" fill="#88AA93"/><rect x="846.5004830917874" y="757.3951690821256" width="42.325024154589364" height="42.325024154589364" rx="0" fill="#C3D5C6"/><rect x="891.0531400966182" y="757.3951690821256" width="42.325024154589364" height="42.325024154589364" rx="0" fill="#EDFFF3"/><rect x="935.6057971014492" y="757.3951690821256" width="42.325024154589364" height="42.325024154589364" rx="0" fill="#88AA93"/><rect x="980.15845410628" y="757.3951690821256" width="42.325024154589364" height="42.325024154589364" rx="0" fill="#C3D5C6"/><rect x="0" y="801.9478260869564" width="42.325024154589364" height="42.325024154589364" rx="0" fill="#EDFFF3"/><rect x="44.55265700483091" y="801.9478260869564" width="42.325024154589364" height="42.325024154589364" rx="0" fill="#C3D5C6"/><rect x="89.10531400966183" y="801.9478260869564" width="42.325024154589364" height="42.325024154589364" rx="0" fill="#DBFFE8"/><rect x="133.65797101449274" y="801.9478260869564" width="42.325024154589364" height="42.325024154589364" rx="0" fill="#C3D5C6"/><rect x="178.21062801932365" y="801.9478260869564" width="42.325024154589364" height="42.325024154589364" rx="0" fill="#EDFFF3"/><rect x="222.76328502415456" y="801.9478260869564" width="42.325024154589364" height="42.325024154589364" rx="0" fill="#C3D5C6"/><rect x="267.3159420289855" y="801.9478260869564" width="42.325024154589364" height="42.325024154589364" rx="0" fill="#C3D5C6"/><rect x="311.8685990338164" y="801.9478260869564" width="42.325024154589364" height="42.325024154589364" rx="0" fill="#EDFFF3"/><rect x="356.4212560386473" y="801.9478260869564" width="42.325024154589364" height="42.325024154589364" rx="0" fill="#EDFFF3"/><rect x="400.9739130434782" y="801.9478260869564" width="42.325024154589364" height="42.325024154589364" rx="0" fill="#88AA93"/><rect x="445.5265700483091" y="801.9478260869564" width="42.325024154589364" height="42.325024154589364" rx="0" fill="#88AA93"/><rect x="490.07922705314" y="801.9478260869564" width="42.325024154589364" height="42.325024154589364" rx="0" fill="#DBFFE8"/><rect x="534.631884057971" y="801.9478260869564" width="42.325024154589364" height="42.325024154589364" rx="0" fill="#C3D5C6"/><rect x="579.1845410628018" y="801.9478260869564" width="42.325024154589364" height="42.325024154589364" rx="0" fill="#DBFFE8"/><rect x="623.7371980676328" y="801.9478260869564" width="42.325024154589364" height="42.325024154589364" rx="0" fill="#EDFFF3"/><rect x="668.2898550724636" y="801.9478260869564" width="42.325024154589364" height="42.325024154589364" rx="0" fill="#EDFFF3"/><rect x="712.8425120772946" y="801.9478260869564" width="42.325024154589364" height="42.325024154589364" rx="0" fill="#EDFFF3"/><rect x="757.3951690821256" y="801.9478260869564" width="42.325024154589364" height="42.325024154589364" rx="0" fill="#EDFFF3"/><rect x="801.9478260869564" y="801.9478260869564" width="42.325024154589364" height="42.325024154589364" rx="0" fill="#C3D5C6"/><rect x="846.5004830917874" y="801.9478260869564" width="42.325024154589364" height="42.325024154589364" rx="0" fill="#DBFFE8"/><rect x="891.0531400966182" y="801.9478260869564" width="42.325024154589364" height="42.325024154589364" rx="0" fill="#C3D5C6"/><rect x="935.6057971014492" y="801.9478260869564" width="42.325024154589364" height="42.325024154589364" rx="0" fill="#DBFFE8"/><rect x="980.15845410628" y="801.9478260869564" width="42.325024154589364" height="42.325024154589364" rx="0" fill="#EDFFF3"/><rect x="0" y="846.5004830917874" width="42.325024154589364" height="42.325024154589364" rx="0" fill="#C3D5C6"/><rect x="44.55265700483091" y="846.5004830917874" width="42.325024154589364" height="42.325024154589364" rx="0" fill="#88AA93"/><rect x="89.10531400966183" y="846.5004830917874" width="42.325024154589364" height="42.325024154589364" rx="0" fill="#DBFFE8"/><rect x="133.65797101449274" y="846.5004830917874" width="42.325024154589364" height="42.325024154589364" rx="0" fill="#EDFFF3"/><rect x="178.21062801932365" y="846.5004830917874" width="42.325024154589364" height="42.325024154589364" rx="0" fill="#DBFFE8"/><rect x="222.76328502415456" y="846.5004830917874" width="42.325024154589364" height="42.325024154589364" rx="0" fill="#88AA93"/><rect x="267.3159420289855" y="846.5004830917874" width="42.325024154589364" height="42.325024154589364" rx="0" fill="#88AA93"/><rect x="311.8685990338164" y="846.5004830917874" width="42.325024154589364" height="42.325024154589364" rx="0" fill="#DBFFE8"/><rect x="356.4212560386473" y="846.5004830917874" width="42.325024154589364" height="42.325024154589364" rx="0" fill="#C3D5C6"/><rect x="400.9739130434782" y="846.5004830917874" width="42.325024154589364" height="42.325024154589364" rx="0" fill="#88AA93"/><rect x="445.5265700483091" y="846.5004830917874" width="42.325024154589364" height="42.325024154589364" rx="0" fill="#DBFFE8"/><rect x="490.07922705314" y="846.5004830917874" width="42.325024154589364" height="42.325024154589364" rx="0" fill="#88AA93"/><rect x="534.631884057971" y="846.5004830917874" width="42.325024154589364" height="42.325024154589364" rx="0" fill="#DBFFE8"/><rect x="579.1845410628018" y="846.5004830917874" width="42.325024154589364" height="42.325024154589364" rx="0" fill="#C3D5C6"/><rect x="623.7371980676328" y="846.5004830917874" width="42.325024154589364" height="42.325024154589364" rx="0" fill="#C3D5C6"/><rect x="668.2898550724636" y="846.5004830917874" width="42.325024154589364" height="42.325024154589364" rx="0" fill="#88AA93"/><rect x="712.8425120772946" y="846.5004830917874" width="42.325024154589364" height="42.325024154589364" rx="0" fill="#88AA93"/><rect x="757.3951690821256" y="846.5004830917874" width="42.325024154589364" height="42.325024154589364" rx="0" fill="#EDFFF3"/><rect x="801.9478260869564" y="846.5004830917874" width="42.325024154589364" height="42.325024154589364" rx="0" fill="#EDFFF3"/><rect x="846.5004830917874" y="846.5004830917874" width="42.325024154589364" height="42.325024154589364" rx="0" fill="#88AA93"/><rect x="891.0531400966182" y="846.5004830917874" width="42.325024154589364" height="42.325024154589364" rx="0" fill="#C3D5C6"/><rect x="935.6057971014492" y="846.5004830917874" width="42.325024154589364" height="42.325024154589364" rx="0" fill="#EDFFF3"/><rect x="980.15845410628" y="846.5004830917874" width="42.325024154589364" height="42.325024154589364" rx="0" fill="#C3D5C6"/><rect x="0" y="891.0531400966182" width="42.325024154589364" height="42.325024154589364" rx="0" fill="#88AA93"/><rect x="44.55265700483091" y="891.0531400966182" width="42.325024154589364" height="42.325024154589364" rx="0" fill="#C3D5C6"/><rect x="89.10531400966183" y="891.0531400966182" width="42.325024154589364" height="42.325024154589364" rx="0" fill="#88AA93"/><rect x="133.65797101449274" y="891.0531400966182" width="42.325024154589364" height="42.325024154589364" rx="0" fill="#DBFFE8"/><rect x="178.21062801932365" y="891.0531400966182" width="42.325024154589364" height="42.325024154589364" rx="0" fill="#DBFFE8"/><rect x="222.76328502415456" y="891.0531400966182" width="42.325024154589364" height="42.325024154589364" rx="0" fill="#C3D5C6"/><rect x="267.3159420289855" y="891.0531400966182" width="42.325024154589364" height="42.325024154589364" rx="0" fill="#EDFFF3"/><rect x="311.8685990338164" y="891.0531400966182" width="42.325024154589364" height="42.325024154589364" rx="0" fill="#C3D5C6"/><rect x="356.4212560386473" y="891.0531400966182" width="42.325024154589364" height="42.325024154589364" rx="0" fill="#EDFFF3"/><rect x="400.9739130434782" y="891.0531400966182" width="42.325024154589364" height="42.325024154589364" rx="0" fill="#88AA93"/><rect x="445.5265700483091" y="891.0531400966182" width="42.325024154589364" height="42.325024154589364" rx="0" fill="#DBFFE8"/><rect x="490.07922705314" y="891.0531400966182" width="42.325024154589364" height="42.325024154589364" rx="0" fill="#88AA93"/><rect x="534.631884057971" y="891.0531400966182" width="42.325024154589364" height="42.325024154589364" rx="0" fill="#C3D5C6"/><rect x="579.1845410628018" y="891.0531400966182" width="42.325024154589364" height="42.325024154589364" rx="0" fill="#DBFFE8"/><rect x="623.7371980676328" y="891.0531400966182" width="42.325024154589364" height="42.325024154589364" rx="0" fill="#EDFFF3"/><rect x="668.2898550724636" y="891.0531400966182" width="42.325024154589364" height="42.325024154589364" rx="0" fill="#DBFFE8"/><rect x="712.8425120772946" y="891.0531400966182" width="42.325024154589364" height="42.325024154589364" rx="0" fill="#C3D5C6"/><rect x="757.3951690821256" y="891.0531400966182" width="42.325024154589364" height="42.325024154589364" rx="0" fill="#C3D5C6"/><rect x="801.9478260869564" y="891.0531400966182" width="42.325024154589364" height="42.325024154589364" rx="0" fill="#EDFFF3"/><rect x="846.5004830917874" y="891.0531400966182" width="42.325024154589364" height="42.325024154589364" rx="0" fill="#DBFFE8"/><rect x="891.0531400966182" y="891.0531400966182" width="42.325024154589364" height="42.325024154589364" rx="0" fill="#C3D5C6"/><rect x="935.6057971014492" y="891.0531400966182" width="42.325024154589364" height="42.325024154589364" rx="0" fill="#DBFFE8"/><rect x="980.15845410628" y="891.0531400966182" width="42.325024154589364" height="42.325024154589364" rx="0" fill="#88AA93"/><rect x="0" y="935.6057971014492" width="42.325024154589364" height="42.325024154589364" rx="0" fill="#88AA93"/><rect x="44.55265700483091" y="935.6057971014492" width="42.325024154589364" height="42.325024154589364" rx="0" fill="#C3D5C6"/><rect x="89.10531400966183" y="935.6057971014492" width="42.325024154589364" height="42.325024154589364" rx="0" fill="#C3D5C6"/><rect x="133.65797101449274" y="935.6057971014492" width="42.325024154589364" height="42.325024154589364" rx="0" fill="#EDFFF3"/><rect x="178.21062801932365" y="935.6057971014492" width="42.325024154589364" height="42.325024154589364" rx="0" fill="#DBFFE8"/><rect x="222.76328502415456" y="935.6057971014492" width="42.325024154589364" height="42.325024154589364" rx="0" fill="#88AA93"/><rect x="267.3159420289855" y="935.6057971014492" width="42.325024154589364" height="42.325024154589364" rx="0" fill="#DBFFE8"/><rect x="311.8685990338164" y="935.6057971014492" width="42.325024154589364" height="42.325024154589364" rx="0" fill="#C3D5C6"/><rect x="356.4212560386473" y="935.6057971014492" width="42.325024154589364" height="42.325024154589364" rx="0" fill="#EDFFF3"/><rect x="400.9739130434782" y="935.6057971014492" width="42.325024154589364" height="42.325024154589364" rx="0" fill="#EDFFF3"/><rect x="445.5265700483091" y="935.6057971014492" width="42.325024154589364" height="42.325024154589364" rx="0" fill="#DBFFE8"/><rect x="490.07922705314" y="935.6057971014492" width="42.325024154589364" height="42.325024154589364" rx="0" fill="#C3D5C6"/><rect x="534.631884057971" y="935.6057971014492" width="42.325024154589364" height="42.325024154589364" rx="0" fill="#C3D5C6"/><rect x="579.1845410628018" y="935.6057971014492" width="42.325024154589364" height="42.325024154589364" rx="0" fill="#DBFFE8"/><rect x="623.7371980676328" y="935.6057971014492" width="42.325024154589364" height="42.325024154589364" rx="0" fill="#EDFFF3"/><rect x="668.2898550724636" y="935.6057971014492" width="42.325024154589364" height="42.325024154589364" rx="0" fill="#EDFFF3"/><rect x="712.8425120772946" y="935.6057971014492" width="42.325024154589364" height="42.325024154589364" rx="0" fill="#C3D5C6"/><rect x="757.3951690821256" y="935.6057971014492" width="42.325024154589364" height="42.325024154589364" rx="0" fill="#88AA93"/><rect x="801.9478260869564" y="935.6057971014492" width="42.325024154589364" height="42.325024154589364" rx="0" fill="#88AA93"/><rect x="846.5004830917874" y="935.6057971014492" width="42.325024154589364" height="42.325024154589364" rx="0" fill="#88AA93"/><rect x="891.0531400966182" y="935.6057971014492" width="42.325024154589364" height="42.325024154589364" rx="0" fill="#DBFFE8"/><rect x="935.6057971014492" y="935.6057971014492" width="42.325024154589364" height="42.325024154589364" rx="0" fill="#C3D5C6"/><rect x="980.15845410628" y="935.6057971014492" width="42.325024154589364" height="42.325024154589364" rx="0" fill="#88AA93"/><rect x="0" y="980.15845410628" width="42.325024154589364" height="42.325024154589364" rx="0" fill="#C3D5C6"/><rect x="44.55265700483091" y="980.15845410628" width="42.325024154589364" height="42.325024154589364" rx="0" fill="#88AA93"/><rect x="89.10531400966183" y="980.15845410628" width="42.325024154589364" height="42.325024154589364" rx="0" fill="#EDFFF3"/><rect x="133.65797101449274" y="980.15845410628" width="42.325024154589364" height="42.325024154589364" rx="0" fill="#EDFFF3"/><rect x="178.21062801932365" y="980.15845410628" width="42.325024154589364" height="42.325024154589364" rx="0" fill="#C3D5C6"/><rect x="222.76328502415456" y="980.15845410628" width="42.325024154589364" height="42.325024154589364" rx="0" fill="#88AA93"/><rect x="267.3159420289855" y="980.15845410628" width="42.325024154589364" height="42.325024154589364" rx="0" fill="#88AA93"/><rect x="311.8685990338164" y="980.15845410628" width="42.325024154589364" height="42.325024154589364" rx="0" fill="#88AA93"/><rect x="356.4212560386473" y="980.15845410628" width="42.325024154589364" height="42.325024154589364" rx="0" fill="#EDFFF3"/><rect x="400.9739130434782" y="980.15845410628" width="42.325024154589364" height="42.325024154589364" rx="0" fill="#DBFFE8"/><rect x="445.5265700483091" y="980.15845410628" width="42.325024154589364" height="42.325024154589364" rx="0" fill="#EDFFF3"/><rect x="490.07922705314" y="980.15845410628" width="42.325024154589364" height="42.325024154589364" rx="0" fill="#EDFFF3"/><rect x="534.631884057971" y="980.15845410628" width="42.325024154589364" height="42.325024154589364" rx="0" fill="#C3D5C6"/><rect x="579.1845410628018" y="980.15845410628" width="42.325024154589364" height="42.325024154589364" rx="0" fill="#EDFFF3"/><rect x="623.7371980676328" y="980.15845410628" width="42.325024154589364" height="42.325024154589364" rx="0" fill="#88AA93"/><rect x="668.2898550724636" y="980.15845410628" width="42.325024154589364" height="42.325024154589364" rx="0" fill="#DBFFE8"/><rect x="712.8425120772946" y="980.15845410628" width="42.325024154589364" height="42.325024154589364" rx="0" fill="#C3D5C6"/><rect x="757.3951690821256" y="980.15845410628" width="42.325024154589364" height="42.325024154589364" rx="0" fill="#EDFFF3"/><rect x="801.9478260869564" y="980.15845410628" width="42.325024154589364" height="42.325024154589364" rx="0" fill="#EDFFF3"/><rect x="846.5004830917874" y="980.15845410628" width="42.325024154589364" height="42.325024154589364" rx="0" fill="#C3D5C6"/><rect x="891.0531400966182" y="980.15845410628" width="42.325024154589364" height="42.325024154589364" rx="0" fill="#EDFFF3"/><rect x="935.6057971014492" y="980.15845410628" width="42.325024154589364" height="42.325024154589364" rx="0" fill="#EDFFF3"/><rect x="980.15845410628" y="980.15845410628" width="42.325024154589364" height="42.325024154589364" rx="0" fill="#DBFFE8"/><rect x="0" y="1024.711111111111" width="42.325024154589364" height="42.325024154589364" rx="0" fill="#DBFFE8"/><rect x="44.55265700483091" y="1024.711111111111" width="42.325024154589364" height="42.325024154589364" rx="0" fill="#C3D5C6"/><rect x="89.10531400966183" y="1024.711111111111" width="42.325024154589364" height="42.325024154589364" rx="0" fill="#C3D5C6"/><rect x="133.65797101449274" y="1024.711111111111" width="42.325024154589364" height="42.325024154589364" rx="0" fill="#88AA93"/><rect x="178.21062801932365" y="1024.711111111111" width="42.325024154589364" height="42.325024154589364" rx="0" fill="#C3D5C6"/><rect x="222.76328502415456" y="1024.711111111111" width="42.325024154589364" height="42.325024154589364" rx="0" fill="#88AA93"/><rect x="267.3159420289855" y="1024.711111111111" width="42.325024154589364" height="42.325024154589364" rx="0" fill="#EDFFF3"/><rect x="311.8685990338164" y="1024.711111111111" width="42.325024154589364" height="42.325024154589364" rx="0" fill="#88AA93"/><rect x="356.4212560386473" y="1024.711111111111" width="42.325024154589364" height="42.325024154589364" rx="0" fill="#EDFFF3"/><rect x="400.9739130434782" y="1024.711111111111" width="42.325024154589364" height="42.325024154589364" rx="0" fill="#EDFFF3"/><rect x="445.5265700483091" y="1024.711111111111" width="42.325024154589364" height="42.325024154589364" rx="0" fill="#DBFFE8"/><rect x="490.07922705314" y="1024.711111111111" width="42.325024154589364" height="42.325024154589364" rx="0" fill="#DBFFE8"/><rect x="534.631884057971" y="1024.711111111111" width="42.325024154589364" height="42.325024154589364" rx="0" fill="#88AA93"/><rect x="579.1845410628018" y="1024.711111111111" width="42.325024154589364" height="42.325024154589364" rx="0" fill="#EDFFF3"/><rect x="623.7371980676328" y="1024.711111111111" width="42.325024154589364" height="42.325024154589364" rx="0" fill="#C3D5C6"/><rect x="668.2898550724636" y="1024.711111111111" width="42.325024154589364" height="42.325024154589364" rx="0" fill="#C3D5C6"/><rect x="712.8425120772946" y="1024.711111111111" width="42.325024154589364" height="42.325024154589364" rx="0" fill="#88AA93"/><rect x="757.3951690821256" y="1024.711111111111" width="42.325024154589364" height="42.325024154589364" rx="0" fill="#88AA93"/><rect x="801.9478260869564" y="1024.711111111111" width="42.325024154589364" height="42.325024154589364" rx="0" fill="#DBFFE8"/><rect x="846.5004830917874" y="1024.711111111111" width="42.325024154589364" height="42.325024154589364" rx="0" fill="#DBFFE8"/><rect x="891.0531400966182" y="1024.711111111111" width="42.325024154589364" height="42.325024154589364" rx="0" fill="#EDFFF3"/><rect x="935.6057971014492" y="1024.711111111111" width="42.325024154589364" height="42.325024154589364" rx="0" fill="#EDFFF3"/><rect x="980.15845410628" y="1024.711111111111" width="42.325024154589364" height="42.325024154589364" rx="0" fill="#88AA93"/></svg>