<svg id="visual" viewBox="0 0 900 600" width="900" height="600" xmlns="http://www.w3.org/2000/svg" xmlns:xlink="http://www.w3.org/1999/xlink" version="1.1"><g stroke-width="1" stroke-linejoin="bevel"><path d="M469.1 275L513.9 273L511.7 209Z" fill="#c7dbcd" stroke="#c7dbcd"></path><path d="M381.3 175L369.3 219L469.1 275Z" fill="#809785" stroke="#809785"></path><path d="M362.1 296L448.9 360L469.1 275Z" fill="#6f8774" stroke="#6f8774"></path><path d="M469.1 275L448.9 360L513.9 273Z" fill="#a3b9a9" stroke="#a3b9a9"></path><path d="M585.7 142L560.9 137L511.7 209Z" fill="#a3b9a9" stroke="#a3b9a9"></path><path d="M511.7 209L381.3 175L469.1 275Z" fill="#a3b9a9" stroke="#a3b9a9"></path><path d="M450.1 115L381.3 175L511.7 209Z" fill="#a3b9a9" stroke="#a3b9a9"></path><path d="M517.9 110L450.1 115L511.7 209Z" fill="#5e7763" stroke="#5e7763"></path><path d="M560.9 137L517.9 110L511.7 209Z" fill="#edfff3" stroke="#edfff3"></path><path d="M631.5 214L585.7 142L511.7 209Z" fill="#c7dbcd" stroke="#c7dbcd"></path><path d="M560.9 137L608.5 103L517.9 110Z" fill="#edfff3" stroke="#edfff3"></path><path d="M369.3 219L362.1 296L469.1 275Z" fill="#c7dbcd" stroke="#c7dbcd"></path><path d="M633.7 341L631.5 214L513.9 273Z" fill="#c7dbcd" stroke="#c7dbcd"></path><path d="M513.9 273L631.5 214L511.7 209Z" fill="#91a897" stroke="#91a897"></path><path d="M448.9 360L502.9 392L513.9 273Z" fill="#91a897" stroke="#91a897"></path><path d="M419.1 389L430.9 391L448.9 360Z" fill="#c7dbcd" stroke="#c7dbcd"></path><path d="M448.9 360L430.9 391L502.9 392Z" fill="#a3b9a9" stroke="#a3b9a9"></path><path d="M362.1 296L419.1 389L448.9 360Z" fill="#b5cabb" stroke="#b5cabb"></path><path d="M450.1 115L429.1 86L381.3 175Z" fill="#91a897" stroke="#91a897"></path><path d="M517.9 110L429.1 86L450.1 115Z" fill="#c7dbcd" stroke="#c7dbcd"></path><path d="M631.5 214L608.7 118L585.7 142Z" fill="#4e6753" stroke="#4e6753"></path><path d="M585.7 142L608.7 118L560.9 137Z" fill="#3f5843" stroke="#3f5843"></path><path d="M517.9 110L494.9 0L429.1 86Z" fill="#809785" stroke="#809785"></path><path d="M502.9 392L633.7 341L513.9 273Z" fill="#daede0" stroke="#daede0"></path><path d="M695.5 132L608.5 103L608.7 118Z" fill="#a3b9a9" stroke="#a3b9a9"></path><path d="M608.7 118L608.5 103L560.9 137Z" fill="#809785" stroke="#809785"></path><path d="M381.3 175L303.5 240L369.3 219Z" fill="#5e7763" stroke="#5e7763"></path><path d="M369.3 219L303.5 240L362.1 296Z" fill="#c7dbcd" stroke="#c7dbcd"></path><path d="M362.1 296L346.3 423L419.1 389Z" fill="#a3b9a9" stroke="#a3b9a9"></path><path d="M261.5 127L303.5 240L381.3 175Z" fill="#5e7763" stroke="#5e7763"></path><path d="M594.7 417L596.5 407L502.9 392Z" fill="#a3b9a9" stroke="#a3b9a9"></path><path d="M502.9 392L596.5 407L633.7 341Z" fill="#b5cabb" stroke="#b5cabb"></path><path d="M503.7 491L594.7 417L502.9 392Z" fill="#edfff3" stroke="#edfff3"></path><path d="M596.5 407L688.5 371L633.7 341Z" fill="#5e7763" stroke="#5e7763"></path><path d="M429.1 86L345.3 90L381.3 175Z" fill="#b5cabb" stroke="#b5cabb"></path><path d="M633.7 341L705.4 211L631.5 214Z" fill="#5e7763" stroke="#5e7763"></path><path d="M631.5 214L695.5 132L608.7 118Z" fill="#3f5843" stroke="#3f5843"></path><path d="M772.2 277L705.4 211L633.7 341Z" fill="#edfff3" stroke="#edfff3"></path><path d="M439.9 478L470.1 462L430.9 391Z" fill="#edfff3" stroke="#edfff3"></path><path d="M430.9 391L470.1 462L502.9 392Z" fill="#3f5843" stroke="#3f5843"></path><path d="M439.9 478L430.9 391L419.1 389Z" fill="#3f5843" stroke="#3f5843"></path><path d="M257.3 337L346.3 423L362.1 296Z" fill="#91a897" stroke="#91a897"></path><path d="M705.4 211L695.5 132L631.5 214Z" fill="#edfff3" stroke="#edfff3"></path><path d="M628.7 445L688.5 371L596.5 407Z" fill="#3f5843" stroke="#3f5843"></path><path d="M346.3 423L439.9 478L419.1 389Z" fill="#daede0" stroke="#daede0"></path><path d="M617.5 529L628.7 445L594.7 417Z" fill="#3f5843" stroke="#3f5843"></path><path d="M600.7 0L517.9 110L608.5 103Z" fill="#5e7763" stroke="#5e7763"></path><path d="M600.7 0L494.9 0L517.9 110Z" fill="#a3b9a9" stroke="#a3b9a9"></path><path d="M429.1 86L418.1 0L345.3 90Z" fill="#3f5843" stroke="#3f5843"></path><path d="M185.6 240L253.5 309L303.5 240Z" fill="#3f5843" stroke="#3f5843"></path><path d="M303.5 240L253.5 309L362.1 296Z" fill="#c7dbcd" stroke="#c7dbcd"></path><path d="M503.7 491L502.9 392L470.1 462Z" fill="#daede0" stroke="#daede0"></path><path d="M594.7 417L628.7 445L596.5 407Z" fill="#6f8774" stroke="#6f8774"></path><path d="M439.9 478L503.7 491L470.1 462Z" fill="#daede0" stroke="#daede0"></path><path d="M253.5 309L257.3 337L362.1 296Z" fill="#edfff3" stroke="#edfff3"></path><path d="M494.9 0L418.1 0L429.1 86Z" fill="#3f5843" stroke="#3f5843"></path><path d="M209.5 126L261.5 127L264.5 0Z" fill="#3f5843" stroke="#3f5843"></path><path d="M345.3 90L261.5 127L381.3 175Z" fill="#edfff3" stroke="#edfff3"></path><path d="M626.5 0L600.7 0L608.5 103Z" fill="#3f5843" stroke="#3f5843"></path><path d="M767.4 189L734.4 119L695.5 132Z" fill="#daede0" stroke="#daede0"></path><path d="M677.4 0L626.5 0L608.5 103Z" fill="#daede0" stroke="#daede0"></path><path d="M767.4 189L695.5 132L705.4 211Z" fill="#b5cabb" stroke="#b5cabb"></path><path d="M677.4 0L608.5 103L695.5 132Z" fill="#4e6753" stroke="#4e6753"></path><path d="M779.2 240L767.4 189L705.4 211Z" fill="#6f8774" stroke="#6f8774"></path><path d="M688.5 371L772.2 277L633.7 341Z" fill="#daede0" stroke="#daede0"></path><path d="M764.4 340L772.2 277L688.5 371Z" fill="#91a897" stroke="#91a897"></path><path d="M772.2 277L779.2 240L705.4 211Z" fill="#daede0" stroke="#daede0"></path><path d="M713.5 446L764.4 340L688.5 371Z" fill="#6f8774" stroke="#6f8774"></path><path d="M900 279L796.2 204L779.2 240Z" fill="#b5cabb" stroke="#b5cabb"></path><path d="M240.5 487L333.3 491L346.3 423Z" fill="#daede0" stroke="#daede0"></path><path d="M346.3 423L333.3 491L439.9 478Z" fill="#b5cabb" stroke="#b5cabb"></path><path d="M439.9 478L456.1 557L503.7 491Z" fill="#809785" stroke="#809785"></path><path d="M628.7 445L713.5 446L688.5 371Z" fill="#6f8774" stroke="#6f8774"></path><path d="M713.4 477L713.5 446L628.7 445Z" fill="#5e7763" stroke="#5e7763"></path><path d="M264.5 0L261.5 127L345.3 90Z" fill="#4e6753" stroke="#4e6753"></path><path d="M261.5 127L185.6 240L303.5 240Z" fill="#5e7763" stroke="#5e7763"></path><path d="M253.5 309L199.6 347L257.3 337Z" fill="#3f5843" stroke="#3f5843"></path><path d="M209.5 126L185.6 240L261.5 127Z" fill="#5e7763" stroke="#5e7763"></path><path d="M257.3 337L208.6 397L346.3 423Z" fill="#91a897" stroke="#91a897"></path><path d="M418.1 0L304.3 0L345.3 90Z" fill="#809785" stroke="#809785"></path><path d="M734.4 119L677.4 0L695.5 132Z" fill="#c7dbcd" stroke="#c7dbcd"></path><path d="M900 279L779.2 240L772.2 277Z" fill="#6f8774" stroke="#6f8774"></path><path d="M779.2 240L796.2 204L767.4 189Z" fill="#3f5843" stroke="#3f5843"></path><path d="M767.4 189L878.2 67L734.4 119Z" fill="#5e7763" stroke="#5e7763"></path><path d="M734.4 119L838.2 0L677.4 0Z" fill="#edfff3" stroke="#edfff3"></path><path d="M185.6 240L199.6 347L253.5 309Z" fill="#3f5843" stroke="#3f5843"></path><path d="M889.2 391L790.4 331L882.2 436Z" fill="#4e6753" stroke="#4e6753"></path><path d="M764.4 340L790.4 331L772.2 277Z" fill="#4e6753" stroke="#4e6753"></path><path d="M590.7 600L617.5 529L503.7 491Z" fill="#5e7763" stroke="#5e7763"></path><path d="M503.7 491L617.5 529L594.7 417Z" fill="#a3b9a9" stroke="#a3b9a9"></path><path d="M322.3 526L456.1 557L439.9 478Z" fill="#daede0" stroke="#daede0"></path><path d="M199.6 347L208.6 397L257.3 337Z" fill="#4e6753" stroke="#4e6753"></path><path d="M681.4 520L713.4 477L628.7 445Z" fill="#91a897" stroke="#91a897"></path><path d="M889.2 391L900 340L790.4 331Z" fill="#c7dbcd" stroke="#c7dbcd"></path><path d="M240.5 487L322.3 526L333.3 491Z" fill="#809785" stroke="#809785"></path><path d="M333.3 491L322.3 526L439.9 478Z" fill="#6f8774" stroke="#6f8774"></path><path d="M304.3 0L264.5 0L345.3 90Z" fill="#daede0" stroke="#daede0"></path><path d="M666.4 600L681.4 520L617.5 529Z" fill="#edfff3" stroke="#edfff3"></path><path d="M617.5 529L681.4 520L628.7 445Z" fill="#4e6753" stroke="#4e6753"></path><path d="M208.6 397L212.5 436L346.3 423Z" fill="#edfff3" stroke="#edfff3"></path><path d="M212.6 442L212.5 436L176.5 447Z" fill="#91a897" stroke="#91a897"></path><path d="M176.5 447L212.5 436L208.6 397Z" fill="#edfff3" stroke="#edfff3"></path><path d="M212.5 436L240.5 487L346.3 423Z" fill="#6f8774" stroke="#6f8774"></path><path d="M212.6 442L240.5 487L212.5 436Z" fill="#809785" stroke="#809785"></path><path d="M420.9 600L437.1 600L456.1 557Z" fill="#b5cabb" stroke="#b5cabb"></path><path d="M456.1 557L590.7 600L503.7 491Z" fill="#5e7763" stroke="#5e7763"></path><path d="M420.9 600L456.1 557L322.3 526Z" fill="#c7dbcd" stroke="#c7dbcd"></path><path d="M338.3 600L420.9 600L322.3 526Z" fill="#6f8774" stroke="#6f8774"></path><path d="M437.1 600L590.7 600L456.1 557Z" fill="#4e6753" stroke="#4e6753"></path><path d="M212.6 442L176.5 447L240.5 487Z" fill="#a3b9a9" stroke="#a3b9a9"></path><path d="M186.6 553L338.3 600L322.3 526Z" fill="#b5cabb" stroke="#b5cabb"></path><path d="M139.8 404L176.5 447L208.6 397Z" fill="#3f5843" stroke="#3f5843"></path><path d="M139.8 404L208.6 397L199.6 347Z" fill="#91a897" stroke="#91a897"></path><path d="M590.7 600L627.5 600L617.5 529Z" fill="#4e6753" stroke="#4e6753"></path><path d="M681.4 520L768.2 600L713.4 477Z" fill="#3f5843" stroke="#3f5843"></path><path d="M209.5 126L102.6 213L185.6 240Z" fill="#809785" stroke="#809785"></path><path d="M79.8 270L139.8 404L199.6 347Z" fill="#809785" stroke="#809785"></path><path d="M264.5 0L140.8 81L209.5 126Z" fill="#c7dbcd" stroke="#c7dbcd"></path><path d="M79.8 270L199.6 347L185.6 240Z" fill="#5e7763" stroke="#5e7763"></path><path d="M96.6 123L102.6 213L209.5 126Z" fill="#91a897" stroke="#91a897"></path><path d="M186.6 553L322.3 526L240.5 487Z" fill="#a3b9a9" stroke="#a3b9a9"></path><path d="M627.5 600L666.4 600L617.5 529Z" fill="#809785" stroke="#809785"></path><path d="M900 340L900 279L790.4 331Z" fill="#3f5843" stroke="#3f5843"></path><path d="M140.8 81L96.6 123L209.5 126Z" fill="#c7dbcd" stroke="#c7dbcd"></path><path d="M102.6 213L79.8 270L185.6 240Z" fill="#edfff3" stroke="#edfff3"></path><path d="M0 236L79.8 270L102.6 213Z" fill="#5e7763" stroke="#5e7763"></path><path d="M790.4 331L900 279L772.2 277Z" fill="#91a897" stroke="#91a897"></path><path d="M796.2 204L878.2 67L767.4 189Z" fill="#a3b9a9" stroke="#a3b9a9"></path><path d="M764.4 340L882.2 436L790.4 331Z" fill="#5e7763" stroke="#5e7763"></path><path d="M264.5 0L153.6 0L140.8 81Z" fill="#c7dbcd" stroke="#c7dbcd"></path><path d="M140.8 81L81.8 40L96.6 123Z" fill="#809785" stroke="#809785"></path><path d="M900 279L900 172L796.2 204Z" fill="#edfff3" stroke="#edfff3"></path><path d="M900 172L900 153L796.2 204Z" fill="#b5cabb" stroke="#b5cabb"></path><path d="M764.4 340L713.5 446L882.2 436Z" fill="#91a897" stroke="#91a897"></path><path d="M878.2 67L838.2 0L734.4 119Z" fill="#5e7763" stroke="#5e7763"></path><path d="M900 153L878.2 67L796.2 204Z" fill="#6f8774" stroke="#6f8774"></path><path d="M882.2 436L713.5 446L713.4 477Z" fill="#c7dbcd" stroke="#c7dbcd"></path><path d="M120.6 600L186.6 553L79.8 565Z" fill="#c7dbcd" stroke="#c7dbcd"></path><path d="M176.5 447L186.6 553L240.5 487Z" fill="#3f5843" stroke="#3f5843"></path><path d="M174.5 600L186.6 553L120.6 600Z" fill="#edfff3" stroke="#edfff3"></path><path d="M900 153L900 93L878.2 67Z" fill="#6f8774" stroke="#6f8774"></path><path d="M878.2 67L900 0L838.2 0Z" fill="#6f8774" stroke="#6f8774"></path><path d="M900 469L882.2 436L713.4 477Z" fill="#edfff3" stroke="#edfff3"></path><path d="M889.2 391L900 459L900 340Z" fill="#6f8774" stroke="#6f8774"></path><path d="M0 100L52.8 169L96.6 123Z" fill="#daede0" stroke="#daede0"></path><path d="M96.6 123L52.8 169L102.6 213Z" fill="#a3b9a9" stroke="#a3b9a9"></path><path d="M666.4 600L768.2 600L681.4 520Z" fill="#b5cabb" stroke="#b5cabb"></path><path d="M153.6 0L81.8 40L140.8 81Z" fill="#4e6753" stroke="#4e6753"></path><path d="M900 469L900 459L882.2 436Z" fill="#daede0" stroke="#daede0"></path><path d="M882.2 436L900 459L889.2 391Z" fill="#4e6753" stroke="#4e6753"></path><path d="M864.2 580L900 469L713.4 477Z" fill="#6f8774" stroke="#6f8774"></path><path d="M900 93L900 0L878.2 67Z" fill="#edfff3" stroke="#edfff3"></path><path d="M186.6 553L176.5 447L79.8 565Z" fill="#5e7763" stroke="#5e7763"></path><path d="M186.6 553L174.5 600L338.3 600Z" fill="#c7dbcd" stroke="#c7dbcd"></path><path d="M0 100L0 236L52.8 169Z" fill="#4e6753" stroke="#4e6753"></path><path d="M52.8 169L0 236L102.6 213Z" fill="#b5cabb" stroke="#b5cabb"></path><path d="M79.8 270L0 356L139.8 404Z" fill="#c7dbcd" stroke="#c7dbcd"></path><path d="M153.6 0L59.8 0L81.8 40Z" fill="#daede0" stroke="#daede0"></path><path d="M0 93L0 100L96.6 123Z" fill="#b5cabb" stroke="#b5cabb"></path><path d="M0 236L0 342L79.8 270Z" fill="#91a897" stroke="#91a897"></path><path d="M0 342L0 356L79.8 270Z" fill="#91a897" stroke="#91a897"></path><path d="M768.2 600L864.2 580L713.4 477Z" fill="#daede0" stroke="#daede0"></path><path d="M0 93L96.6 123L81.8 40Z" fill="#809785" stroke="#809785"></path><path d="M0 0L0 93L81.8 40Z" fill="#edfff3" stroke="#edfff3"></path><path d="M0 356L0 398L139.8 404Z" fill="#a3b9a9" stroke="#a3b9a9"></path><path d="M79.8 565L176.5 447L14.8 476Z" fill="#daede0" stroke="#daede0"></path><path d="M14.8 476L176.5 447L139.8 404Z" fill="#edfff3" stroke="#edfff3"></path><path d="M0 398L14.8 476L139.8 404Z" fill="#5e7763" stroke="#5e7763"></path><path d="M768.2 600L900 600L864.2 580Z" fill="#a3b9a9" stroke="#a3b9a9"></path><path d="M864.2 580L900 600L900 469Z" fill="#6f8774" stroke="#6f8774"></path><path d="M59.8 0L0 0L81.8 40Z" fill="#6f8774" stroke="#6f8774"></path><path d="M0 524L56.8 600L79.8 565Z" fill="#3f5843" stroke="#3f5843"></path><path d="M79.8 565L56.8 600L120.6 600Z" fill="#91a897" stroke="#91a897"></path><path d="M14.8 476L0 524L79.8 565Z" fill="#91a897" stroke="#91a897"></path><path d="M0 398L0 524L14.8 476Z" fill="#3f5843" stroke="#3f5843"></path><path d="M0 524L0 600L56.8 600Z" fill="#4e6753" stroke="#4e6753"></path></g></svg>