<svg class="border shadow-md" viewBox="0 0 1024.711111111111 576.4" style="width: 1024.71px; height: 576.4px;" xmlns="http://www.w3.org/2000/svg" preserveAspectRatio="none"><rect class="bg" id="bg" x="0" y="0" width="1024.711111111111" height="576.4" fill="#ffffff"/><line opacity="0.8" x1="-56" y1="60" x2="1109.711111111111" y2="55" stroke="#EDFFF3" stroke-width="25"/><line opacity="0.8" x1="-22" y1="21.01111111111111" x2="1136.711111111111" y2="43.011111111111106" stroke="#DBFFE8" stroke-width="25"/><line opacity="0.8" x1="-11" y1="61.02222222222222" x2="1102.711111111111" y2="85.02222222222221" stroke="#FFFFFF" stroke-width="25"/><line opacity="0.8" x1="-61" y1="48.03333333333333" x2="1147.711111111111" y2="76.03333333333333" stroke="#FFFFFF" stroke-width="25"/><line opacity="0.8" x1="-15" y1="111.04444444444444" x2="1100.711111111111" y2="100.04444444444444" stroke="#EDFFF3" stroke-width="25"/><line opacity="0.8" x1="-2" y1="104.05555555555554" x2="1095.711111111111" y2="106.05555555555554" stroke="#DBFFE8" stroke-width="25"/><line opacity="0.8" x1="-27" y1="136.06666666666666" x2="1138.711111111111" y2="99.06666666666666" stroke="#FFFFFF" stroke-width="25"/><line opacity="0.8" x1="-13" y1="123.07777777777777" x2="1138.711111111111" y2="168.07777777777778" stroke="#FFFFFF" stroke-width="25"/><line opacity="0.8" x1="-32" y1="144.08888888888887" x2="1117.711111111111" y2="143.08888888888887" stroke="#EDFFF3" stroke-width="25"/><line opacity="0.8" x1="-33" y1="186.1" x2="1103.711111111111" y2="147.1" stroke="#DBFFE8" stroke-width="25"/><line opacity="0.8" x1="-42" y1="186.1111111111111" x2="1092.711111111111" y2="174.1111111111111" stroke="#FFFFFF" stroke-width="25"/><line opacity="0.8" x1="-10" y1="204.1222222222222" x2="1134.711111111111" y2="184.1222222222222" stroke="#FFFFFF" stroke-width="25"/><line opacity="0.8" x1="-49" y1="242.13333333333333" x2="1091.711111111111" y2="219.13333333333333" stroke="#EDFFF3" stroke-width="25"/><line opacity="0.8" x1="-59" y1="261.1444444444444" x2="1096.711111111111" y2="254.14444444444442" stroke="#DBFFE8" stroke-width="25"/><line opacity="0.8" x1="-37" y1="286.15555555555557" x2="1128.711111111111" y2="270.15555555555557" stroke="#FFFFFF" stroke-width="25"/><line opacity="0.8" x1="-37" y1="284.16666666666663" x2="1109.711111111111" y2="278.16666666666663" stroke="#FFFFFF" stroke-width="25"/><line opacity="0.8" x1="-46" y1="289.17777777777775" x2="1142.711111111111" y2="274.17777777777775" stroke="#EDFFF3" stroke-width="25"/><line opacity="0.8" x1="-20" y1="288.18888888888887" x2="1138.711111111111" y2="273.18888888888887" stroke="#DBFFE8" stroke-width="25"/><line opacity="0.8" x1="-19" y1="329.2" x2="1128.711111111111" y2="326.2" stroke="#FFFFFF" stroke-width="25"/><line opacity="0.8" x1="-51" y1="357.21111111111105" x2="1108.711111111111" y2="325.21111111111105" stroke="#FFFFFF" stroke-width="25"/><line opacity="0.8" x1="-25" y1="327.2222222222222" x2="1101.711111111111" y2="348.2222222222222" stroke="#EDFFF3" stroke-width="25"/><line opacity="0.8" x1="-55" y1="377.2333333333333" x2="1140.711111111111" y2="343.2333333333333" stroke="#DBFFE8" stroke-width="25"/><line opacity="0.8" x1="-3" y1="381.2444444444444" x2="1128.711111111111" y2="390.2444444444444" stroke="#FFFFFF" stroke-width="25"/><line opacity="0.8" x1="-13" y1="397.25555555555553" x2="1091.711111111111" y2="384.25555555555553" stroke="#FFFFFF" stroke-width="25"/><line opacity="0.8" x1="-62" y1="422.26666666666665" x2="1091.711111111111" y2="394.26666666666665" stroke="#EDFFF3" stroke-width="25"/><line opacity="0.8" x1="-59" y1="455.2777777777777" x2="1093.711111111111" y2="412.2777777777777" stroke="#DBFFE8" stroke-width="25"/><line opacity="0.8" x1="-10" y1="474.28888888888883" x2="1113.711111111111" y2="443.28888888888883" stroke="#FFFFFF" stroke-width="25"/><line opacity="0.8" x1="-18" y1="462.29999999999995" x2="1107.711111111111" y2="450.29999999999995" stroke="#FFFFFF" stroke-width="25"/><line opacity="0.8" x1="-55" y1="478.3111111111111" x2="1088.711111111111" y2="453.3111111111111" stroke="#EDFFF3" stroke-width="25"/><line opacity="0.8" x1="-41" y1="497.3222222222222" x2="1092.711111111111" y2="493.3222222222222" stroke="#DBFFE8" stroke-width="25"/><line opacity="0.8" x1="-18" y1="481.33333333333326" x2="1147.711111111111" y2="519.3333333333333" stroke="#FFFFFF" stroke-width="25"/><line opacity="0.8" x1="-38" y1="541.3444444444444" x2="1088.711111111111" y2="548.3444444444444" stroke="#FFFFFF" stroke-width="25"/><line opacity="0.8" x1="-24" y1="540.3555555555555" x2="1101.711111111111" y2="547.3555555555555" stroke="#EDFFF3" stroke-width="25"/><line opacity="0.8" x1="-52" y1="564.3666666666666" x2="1115.711111111111" y2="562.3666666666666" stroke="#DBFFE8" stroke-width="25"/><line opacity="0.8" x1="-7" y1="606.3777777777777" x2="1098.711111111111" y2="568.3777777777777" stroke="#FFFFFF" stroke-width="25"/><line opacity="0.8" x1="-20" y1="565.3888888888888" x2="1119.711111111111" y2="586.3888888888888" stroke="#FFFFFF" stroke-width="25"/><line opacity="0.8" x1="-13" y1="603.4" x2="1114.711111111111" y2="634.4" stroke="#EDFFF3" stroke-width="25"/></svg>